<svg xmlns="http://www.w3.org/2000/svg" viewBox="0 0 117.59 116.63"><path d="M67.84,4.51h0a11.31,11.31,0,0,0,13,3.8h0A11.34,11.34,0,0,1,96,18.09h0a11.3,11.3,0,0,0,8.85,10.21h0a11.33,11.33,0,0,1,7.51,16.45h0a11.33,11.33,0,0,0,1.92,13.38h0A11.32,11.32,0,0,1,111.73,76h0a11.33,11.33,0,0,0-5.62,12.29h0A11.32,11.32,0,0,1,94.27,102h0a11.34,11.34,0,0,0-11.37,7.3h0a11.32,11.32,0,0,1-17.35,5.1h0a11.33,11.33,0,0,0-13.51,0h0a11.32,11.32,0,0,1-17.35-5.1h0A11.33,11.33,0,0,0,23.32,102h0A11.32,11.32,0,0,1,11.48,88.32h0A11.32,11.32,0,0,0,5.87,76h0a11.32,11.32,0,0,1-2.58-17.9h0A11.32,11.32,0,0,0,5.21,44.75h0A11.33,11.33,0,0,1,12.73,28.3h0a11.32,11.32,0,0,0,8.85-10.21h0A11.33,11.33,0,0,1,36.79,8.31h0a11.3,11.3,0,0,0,13-3.8h0A11.33,11.33,0,0,1,67.84,4.51Z" fill="#ffce00"/><path d="M91.18,66a4.23,4.23,0,0,1-1.07,2h0a3.55,3.55,0,0,1-.56.52,7.61,7.61,0,0,1-.73.47c-.26.14-.53.28-.8.4s-.53.22-.76.3a11.78,11.78,0,0,1-1.76.47,8.51,8.51,0,0,1-1.84.11,10.77,10.77,0,0,1-1.11.69c-.41.23-.86.46-1.33.67s-1,.42-1.46.62-1,.38-1.46.55h0l-.06,0-9,3.16h0l0,0-.11,0h0L60,79.23h0a2.7,2.7,0,0,1-.37.12,2.5,2.5,0,0,1-.53.1,3.66,3.66,0,0,1-.65,0,2.48,2.48,0,0,1-.71-.24l0,0A6.31,6.31,0,0,1,58,81.06a8.48,8.48,0,0,1-.15,1.87,9.45,9.45,0,0,1-.57,1.86,13.74,13.74,0,0,1-.9,1.8,14.91,14.91,0,0,1-1.15,1.7,17.92,17.92,0,0,1-1.33,1.54l-1.49-1.51c.39-.42.77-.87,1.14-1.34a12.83,12.83,0,0,0,1.79-3,8.46,8.46,0,0,0,.47-1.54A5.92,5.92,0,0,0,55.92,81a4.09,4.09,0,0,0-.37-1.43c-.18-.37-.4-.76-.65-1.18s-.52-.81-.78-1.2-.52-.76-.77-1.1l-.61-.84L54.41,74c.54.7,1,1.29,1.46,1.76a7.27,7.27,0,0,0,1.22,1.1,2.88,2.88,0,0,0,1.08.5,1.94,1.94,0,0,0,1-.08l0,0h0l.08,0L68.45,74h0l9-3.16h0l.1,0,1-.38.81-.32.66-.29.58-.28A7,7,0,0,1,79,68.29a3.8,3.8,0,0,1-.92-1.42,4.92,4.92,0,0,1-.24-1.13,4.78,4.78,0,0,1,0-1.25,5,5,0,0,1,.37-1.23A3.8,3.8,0,0,1,79,62.14l-.9,0,.31-2.18,4,.25c.72.06,1.41.13,2.09.21s1.31.17,1.9.28a13.23,13.23,0,0,1,1.59.39,4.56,4.56,0,0,1,1.17.56A4.83,4.83,0,0,1,91.05,64,3.93,3.93,0,0,1,91.18,66ZM83.7,64.26a6.79,6.79,0,0,0-.28-.63A2.49,2.49,0,0,0,83,63a1.75,1.75,0,0,0-.6-.4,1.53,1.53,0,0,0-.81-.09,1.61,1.61,0,0,0-1,.46,2.49,2.49,0,0,0-.58.9A3.29,3.29,0,0,0,79.82,65,2.88,2.88,0,0,0,80,66a2.2,2.2,0,0,0,.43.76,3.1,3.1,0,0,0,.66.59,4.36,4.36,0,0,0,.83.44,8.85,8.85,0,0,0,.91.31,3.43,3.43,0,0,0,.68-.91,3.85,3.85,0,0,0,.35-1,4.37,4.37,0,0,0,.06-1A3.93,3.93,0,0,0,83.7,64.26Zm5.43.23a2.37,2.37,0,0,0-.45-.72,3.77,3.77,0,0,0-.83-.66,6.15,6.15,0,0,0-1.18-.52,7.17,7.17,0,0,0-1.51-.32,3.23,3.23,0,0,1,.38.7c.09.23.17.45.24.65a4,4,0,0,1,.2,1,6,6,0,0,1,0,1.13,8.44,8.44,0,0,1-.18,1.18,6.1,6.1,0,0,1-.38,1.14l.56-.12.39-.13.48-.17A4.85,4.85,0,0,0,88.14,67a3.2,3.2,0,0,0,.78-.78,2.08,2.08,0,0,0,.31-.87A1.94,1.94,0,0,0,89.13,64.49ZM77,40.28a5.65,5.65,0,0,1-2.08,1.25,5.78,5.78,0,0,1-2.42.33,6.22,6.22,0,0,1-2.28-.62,6.37,6.37,0,0,1-1.89-1.45A6,6,0,0,1,67,37.64a6.31,6.31,0,0,1-.35-2.46,6.66,6.66,0,0,1,.58-2.32,6,6,0,0,1,1.39-1.93,6,6,0,0,1,4.51-1.57,6.11,6.11,0,0,1,2.3.63,6.31,6.31,0,0,1,3.17,3.59A6.19,6.19,0,0,1,79,36.05a6.26,6.26,0,0,1-.59,2.32A6.56,6.56,0,0,1,77,40.28Zm-1.51-5.59a2.86,2.86,0,0,0-.57-1,2.92,2.92,0,0,0-.87-.65,2.88,2.88,0,0,0-1-.29,2.57,2.57,0,0,0-1.09.14,2.64,2.64,0,0,0-.94.57,2.7,2.7,0,0,0-.63.87,3.12,3.12,0,0,0-.26,1,2.8,2.8,0,0,0,.73,2.09,2.77,2.77,0,0,0,3,.79,2.64,2.64,0,0,0,.94-.57,3,3,0,0,0,.64-.87,2.81,2.81,0,0,0,.27-1A2.71,2.71,0,0,0,75.44,34.69ZM62,45.53a6,6,0,0,1-4.5,1.57,6,6,0,0,1-2.28-.62A6.51,6.51,0,0,1,53.3,45,6.15,6.15,0,0,1,52,42.88a6.23,6.23,0,0,1-.35-2.45,6.71,6.71,0,0,1,.58-2.33,6.05,6.05,0,0,1,1.39-1.92,6,6,0,0,1,4.51-1.58,6.31,6.31,0,0,1,4.21,2.09,6.24,6.24,0,0,1,1.25,2.13A6.07,6.07,0,0,1,64,41.3a6.16,6.16,0,0,1-.59,2.31A6.47,6.47,0,0,1,62,45.53Zm-1.51-5.59a2.68,2.68,0,0,0-.57-1A2.9,2.9,0,0,0,58,38a2.58,2.58,0,0,0-1.09.15,2.38,2.38,0,0,0-.94.57,2.7,2.7,0,0,0-.63.87,2.9,2.9,0,0,0-.26,1,2.85,2.85,0,0,0,.72,2.08,3,3,0,0,0,.86.65,2.77,2.77,0,0,0,1,.28,2.44,2.44,0,0,0,1.09-.14A2.64,2.64,0,0,0,59.7,43a3,3,0,0,0,.64-.86,2.91,2.91,0,0,0,.27-1.05A2.67,2.67,0,0,0,60.46,39.94ZM52.33,71.79,50.1,70.68l1-2.24,2.23,1.11ZM48.84,53.25a6,6,0,0,1-2.48,1.69h0a4.72,4.72,0,0,1-2.37.22,5.38,5.38,0,0,1-2.17-.84,6.21,6.21,0,0,1-1.29,2,5,5,0,0,1-2,1.31,4.81,4.81,0,0,1-2.32.25,6.07,6.07,0,0,1-2.11-.72,7.69,7.69,0,0,1-1.76-1.41A8.55,8.55,0,0,1,31,54h0a6.59,6.59,0,0,1-.39-.8c-.12-.28-.23-.56-.33-.86a15.59,15.59,0,0,1-.5-1.81c-.13-.62-.24-1.25-.33-1.91a22,22,0,0,1-.14-2.82,28,28,0,0,1,.24-3c.15-1.07.34-2.22.58-3.45s.54-2.6.88-4.09l-.86-.46L32,31l3,1.34c.85.39,1.62.75,2.3,1.08s1.3.65,1.86,1,1.12.63,1.65,1a32.23,32.23,0,0,1,4,3.06A24.07,24.07,0,0,1,48.1,42,11.51,11.51,0,0,1,49,43.45a12.41,12.41,0,0,1,.73,1.67,11.53,11.53,0,0,1,.61,2.9,8.22,8.22,0,0,1-.24,2.82A6.29,6.29,0,0,1,48.84,53.25Zm-2.55-6.83a9.41,9.41,0,0,0-.5-1.14,9.13,9.13,0,0,0-.57-1A14.53,14.53,0,0,0,43,42a25,25,0,0,0-2.63-1.93c-.93-.58-1.88-1.12-2.86-1.62L34.58,37c-.3.88-.57,1.83-.81,2.84s-.43,2-.57,3-.25,2-.3,2.93A15.12,15.12,0,0,0,33,48.35c.07.49.17,1,.29,1.55a16,16,0,0,0,.45,1.56,3.74,3.74,0,0,0,.58,1.08,3.38,3.38,0,0,0,.84.77,2.65,2.65,0,0,0,1,.38,1.92,1.92,0,0,0,1-.08,1.49,1.49,0,0,0,.52-.34,2.31,2.31,0,0,0,.47-.64,3.66,3.66,0,0,0,.31-.9,4.14,4.14,0,0,0,.08-1.14c0-.46-.07-.88-.12-1.28s-.09-.74-.14-1-.13-.67-.21-1l3-1c.15.44.35.95.61,1.54a10.34,10.34,0,0,0,.91,1.64,5.3,5.3,0,0,0,1.11,1.22,1.38,1.38,0,0,0,1.27.25,2.78,2.78,0,0,0,.88-.8A3.5,3.5,0,0,0,46.31,49a4.57,4.57,0,0,0,.18-1.29A4.07,4.07,0,0,0,46.29,46.42ZM44.67,87.69a8.4,8.4,0,0,0,.63-2.2,4.45,4.45,0,0,0-.2-2.09.87.87,0,0,0-.07-.17,1.47,1.47,0,0,0-.1-.22h0a7.16,7.16,0,0,0-.35-.66c-.13-.23-.27-.47-.42-.71l-.47-.73c-.16-.23-.31-.47-.47-.69-.36-.52-.73-1-1.11-1.54l1.69-1.28c.41.57.81,1.13,1.19,1.7l.5.75.51.79.45.78c.14.25.27.49.38.72l.11.24c0,.1.08.2.12.32a6.3,6.3,0,0,1,.34,1.82,7.78,7.78,0,0,1-.14,1.86,10.84,10.84,0,0,1-.57,1.87,13.74,13.74,0,0,1-.9,1.8,17.48,17.48,0,0,1-1.15,1.7,18,18,0,0,1-1.33,1.53l-1.5-1.5a17,17,0,0,0,1.61-2A12.68,12.68,0,0,0,44.67,87.69Zm-1-20.56,1.86-1q1.89,4,3.11,7.29,2,5.39,2.91,8.87l-2,.58A77.42,77.42,0,0,0,47,75.14C45.74,71.87,44.6,69.2,43.63,67.13Z" fill="#fff" fill-rule="evenodd"/></svg>