<svg xmlns="http://www.w3.org/2000/svg" viewBox="0 0 117.59 116.63"><path d="M67.84,4.51h0a11.31,11.31,0,0,0,13,3.8h0A11.34,11.34,0,0,1,96,18.09h0a11.3,11.3,0,0,0,8.85,10.21h0a11.33,11.33,0,0,1,7.51,16.45h0a11.33,11.33,0,0,0,1.92,13.38h0A11.32,11.32,0,0,1,111.73,76h0a11.33,11.33,0,0,0-5.62,12.29h0A11.32,11.32,0,0,1,94.27,102h0a11.34,11.34,0,0,0-11.37,7.3h0a11.32,11.32,0,0,1-17.35,5.1h0a11.33,11.33,0,0,0-13.51,0h0a11.32,11.32,0,0,1-17.35-5.1h0A11.33,11.33,0,0,0,23.32,102h0A11.32,11.32,0,0,1,11.48,88.32h0A11.32,11.32,0,0,0,5.87,76h0a11.32,11.32,0,0,1-2.58-17.9h0A11.32,11.32,0,0,0,5.21,44.75h0A11.33,11.33,0,0,1,12.73,28.3h0a11.32,11.32,0,0,0,8.85-10.21h0A11.33,11.33,0,0,1,36.79,8.31h0a11.3,11.3,0,0,0,13-3.8h0A11.33,11.33,0,0,1,67.84,4.51Z" fill="#fbb03b"/><path d="M94.13,69.42a2.65,2.65,0,0,1-.89,1,4.19,4.19,0,0,1-2.66.61,9.69,9.69,0,0,1-2.47-.47.54.54,0,0,1-.07.12,5.27,5.27,0,0,1-3.27,2.91h0l0,0a3.46,3.46,0,0,1-3.24-.35,3.11,3.11,0,0,1-.73.94,7.82,7.82,0,0,1-1.12.85,14.89,14.89,0,0,1-1.38.73c-.49.22-1,.42-1.46.59l-.69.24h0l-.07,0h0a4.41,4.41,0,0,1-.88.23,3.62,3.62,0,0,1-.86,0,3.63,3.63,0,0,1-1.36-.37,2.17,2.17,0,0,1-.12.26l-.13.24a3.33,3.33,0,0,1-.45.57,3.28,3.28,0,0,1-.53.41,3.73,3.73,0,0,1-.55.3l-.54.21-1.1.38-.09,0h0a3.59,3.59,0,0,1-1.73.19,3.88,3.88,0,0,1-1.42-.56,3.21,3.21,0,0,1-.73.93,7.25,7.25,0,0,1-1.13.85,11.78,11.78,0,0,1-1.37.73c-.49.22-1,.42-1.46.59l-.7.24h0l-.91.32a8.34,8.34,0,0,1-.13,3.12,9.4,9.4,0,0,1-1.17,2.81,11.19,11.19,0,0,1-2,2.38A13.34,13.34,0,0,1,54,92.4l-1.16-1.82a13.26,13.26,0,0,0,2.48-1.86,10.53,10.53,0,0,0,1.66-2,6.71,6.71,0,0,0,.87-2A4.18,4.18,0,0,0,58,83l-1,.35c-.39.13-.78.25-1.16.34A4.54,4.54,0,0,1,52,83.31,3.2,3.2,0,0,1,51,82.14a6,6,0,0,1-.57-1.59,7.17,7.17,0,0,1-.12-1.73,6.27,6.27,0,0,1,.27-1.58,4.06,4.06,0,0,1,.77-1.36,2.69,2.69,0,0,1,1.14-.77,3.76,3.76,0,0,1,3.1.39,7.35,7.35,0,0,1,1.15.82,8.38,8.38,0,0,1,1,1.1,10.11,10.11,0,0,1,.9,1.31,11.13,11.13,0,0,1,.7,1.48L60,80,60,80l.77-.26A12.87,12.87,0,0,0,62.38,79a4.93,4.93,0,0,0,1.24-.86,2.48,2.48,0,0,0,.67-1.08,2,2,0,0,0-.12-1.33c-.15-.38-.32-.77-.51-1.16a12,12,0,0,0-.79-1.31l1.7-1.2c.14.22.29.45.43.7s.29.5.43.76.27.52.39.79.25.53.36.79a6.68,6.68,0,0,0,.37.77,2.76,2.76,0,0,0,.53.69,1.66,1.66,0,0,0,.71.42A1.45,1.45,0,0,0,68.7,77l0,0,.87-.3.5-.21a2.1,2.1,0,0,0,.34-.18,1.14,1.14,0,0,0,.23-.16,1.09,1.09,0,0,0,.13-.17.84.84,0,0,0,.15-.39,3,3,0,0,0-.09-1c0-.18-.09-.36-.14-.54,0,0,0-.15-.13-.42s-.2-.62-.35-1.06L69.74,71c-.19-.58-.4-1.19-.62-1.82s-.45-1.28-.68-1.94-.46-1.28-.69-1.88-.43-1.15-.63-1.64-.38-.91-.54-1.24l1.89-.94c.17.33.35.75.56,1.26s.43,1,.65,1.64.46,1.22.69,1.87.46,1.3.68,1.94l.63,1.83c.2.59.38,1.12.53,1.58s.28.84.38,1.14l.18.55a3.79,3.79,0,0,0,.26.56,1.92,1.92,0,0,0,.49.58,1.7,1.7,0,0,0,.73.34,2.22,2.22,0,0,0,1-.13h0l.77-.27a11.5,11.5,0,0,0,1.59-.67,4.67,4.67,0,0,0,1.24-.85,2.48,2.48,0,0,0,.67-1.08,2,2,0,0,0-.12-1.34,11.42,11.42,0,0,0-.51-1.16,10.54,10.54,0,0,0-.79-1.3l1.7-1.2c.14.22.29.45.44.7l.42.75c.14.26.27.53.4.79s.24.53.35.8a6.58,6.58,0,0,0,.37.76,2.87,2.87,0,0,0,.53.7,1.77,1.77,0,0,0,.71.42,1.49,1.49,0,0,0,.92-.06h0l0,0h0a3.55,3.55,0,0,0,1.33-.78,3.49,3.49,0,0,0,.76-1.11,5.12,5.12,0,0,0,.38-1.33c.08-.47.15-1,.21-1.46s.1-.84.15-1.24a6,6,0,0,1,.28-1.13A2.94,2.94,0,0,1,89,62.67,3.37,3.37,0,0,1,92,63a4.94,4.94,0,0,1,1.84,2.14,6.06,6.06,0,0,1,.51,1.38,5,5,0,0,1,.16,1.38A3.67,3.67,0,0,1,94.13,69.42ZM56.73,79.66a7.43,7.43,0,0,0-.7-1,5.37,5.37,0,0,0-.74-.76,5.22,5.22,0,0,0-.75-.53l-.3-.15a2.06,2.06,0,0,0-.35-.12,2.35,2.35,0,0,0-.37-.05,1,1,0,0,0-.36.06.89.89,0,0,0-.48.42,2.43,2.43,0,0,0-.26.76,4.47,4.47,0,0,0-.07.92,5,5,0,0,0,.12,1,3.22,3.22,0,0,0,.28.81,1.17,1.17,0,0,0,.43.51,1.23,1.23,0,0,0,.5.2,2.59,2.59,0,0,0,.56,0,5,5,0,0,0,.54-.06c.17,0,.32-.07.44-.11a11.06,11.06,0,0,0,1.18-.37c.35-.13.66-.25.91-.36A8.21,8.21,0,0,0,56.73,79.66ZM92.3,67a3.59,3.59,0,0,0-.31-.86l-.14-.23c-.07-.1-.15-.22-.25-.35s-.22-.25-.36-.38a1.94,1.94,0,0,0-.44-.31,1.55,1.55,0,0,0-.51-.18,1.18,1.18,0,0,0-.58.07.65.65,0,0,0-.34.25,1.53,1.53,0,0,0-.23.48,7.37,7.37,0,0,0-.16.75c0,.29-.09.63-.14,1l-.15,1.31a8.47,8.47,0,0,0,2,.41A2,2,0,0,0,92,68.66a.65.65,0,0,0,.25-.35,1.75,1.75,0,0,0,.1-.6A2.66,2.66,0,0,0,92.3,67ZM75.86,52.87l1.77-3.75L81.4,51l-1.77,3.76Zm-.59.2L73.5,56.82,69.73,55l1.77-3.76Zm1.1-8.16a7.78,7.78,0,0,1-2.17,2.31,7.11,7.11,0,0,1-1.1.61c-.45.21-.92.42-1.39.61s-.94.38-1.37.53l-1,.36L67,50.15l-.14.05a2.33,2.33,0,0,1-.51.11,12.41,12.41,0,0,1-3.81.33,10.17,10.17,0,0,1-4.7-1.53,6.1,6.1,0,0,1-.92,1.75,13.12,13.12,0,0,1-1.3,1.46,15.85,15.85,0,0,1-1.67,1.36A19.27,19.27,0,0,1,51.8,55c-.81.42-1.72.85-2.73,1.27s-2.17.87-3.46,1.32h0c-1,.34-1.93.62-2.79.85s-1.68.42-2.45.55a21,21,0,0,1-2.22.28,20.55,20.55,0,0,1-2.06.07A9,9,0,0,1,29.87,57v0A7.39,7.39,0,0,1,28,54.1a9.31,9.31,0,0,1-.41-1.73,11.82,11.82,0,0,1-.12-1.9c0-.35,0-.67,0-.95s.05-.56.09-.82.08-.51.13-.78.11-.56.16-.88l3.91,1.51a11.09,11.09,0,0,0-.26,1.25,10.61,10.61,0,0,0-.12,1.61A7.86,7.86,0,0,0,31.6,53a2.06,2.06,0,0,0,.53,1.12,3.49,3.49,0,0,0,2.13.89,13,13,0,0,0,3.21-.07,28.52,28.52,0,0,0,3.91-.79c1.41-.37,2.83-.8,4.25-1.3.84-.29,1.63-.6,2.37-.94s1.42-.67,2-1,1.15-.65,1.6-.94a12.57,12.57,0,0,0,1.09-.8,5,5,0,0,0,1.54-2,2.61,2.61,0,0,0,.06-1.78,4,4,0,0,0-1.06-1.55,11.65,11.65,0,0,0-1.85-1.41A18.64,18.64,0,0,0,49.1,41.2c-.84-.39-1.67-.74-2.49-1.06s-1.61-.61-2.35-.86l-1.93-.65-1-4.09L54.26,22.59l3,3.36L46.65,35.61a30.79,30.79,0,0,1,3.11,1.21,24.1,24.1,0,0,1,2.85,1.53,19,19,0,0,1,2.46,1.8,13.16,13.16,0,0,1,1.93,2h0c.35.43.71.87,1.1,1.32a8.7,8.7,0,0,0,1.27,1.23,7.72,7.72,0,0,0,1.56,1,6,6,0,0,0,1.93.52A7.53,7.53,0,0,0,66,45.76l1.12-.39.77-.27c.53-.18,1.09-.4,1.67-.64a13.62,13.62,0,0,0,1.62-.82,7.36,7.36,0,0,0,1.32-1,2.39,2.39,0,0,0,.71-1.12,1.78,1.78,0,0,0-.09-1.05,5.6,5.6,0,0,0-.63-1.28,15.27,15.27,0,0,0-1-1.36c-.38-.47-.76-.91-1.15-1.33s-.77-.83-1.14-1.2l-.92-.94,3.11-3.2A18.63,18.63,0,0,1,73,32.76c.55.64,1.06,1.32,1.56,2s.94,1.43,1.34,2.15a12.05,12.05,0,0,1,.92,2,7.5,7.5,0,0,1,.46,3A6.58,6.58,0,0,1,76.37,44.91ZM40.5,81.62l1.07-2.25,2.25,1.11-1.07,2.25Zm-3.39,2.25,2,.64a3.5,3.5,0,0,0-.12.64c0,.27-.06.57-.07.92s0,.72,0,1.13a11.12,11.12,0,0,0,.14,1.25,9.54,9.54,0,0,0,.29,1.26,6.45,6.45,0,0,0,.47,1.18,3.51,3.51,0,0,0,.38.57,3.94,3.94,0,0,0,.61.62,4.91,4.91,0,0,0,.84.56,4.65,4.65,0,0,0,1.09.38,5.66,5.66,0,0,0,1.34.1,6.87,6.87,0,0,0,1.61-.29h0a7.92,7.92,0,0,0,3.16-2.06,4.08,4.08,0,0,0,1-2.82,6.88,6.88,0,0,0-.35-1.87,9.77,9.77,0,0,0-.72-1.68A11.26,11.26,0,0,0,48,83c-.33-.42-.63-.78-.91-1.08a8.69,8.69,0,0,0-.7-.69L46.06,81l1.29-1.67.41.34a11,11,0,0,1,.86.85,14.55,14.55,0,0,1,1.09,1.3,11.81,11.81,0,0,1,1.09,1.7,12.34,12.34,0,0,1,.85,2.06A9,9,0,0,1,52,87.9a6,6,0,0,1-.26,2,5.9,5.9,0,0,1-1,1.84,7.31,7.31,0,0,1-1.75,1.71,12.34,12.34,0,0,1-2.51,1.33l-.2.08-.19.07a6.62,6.62,0,0,1-4.92,0,6.05,6.05,0,0,1-1.88-1.21A6.88,6.88,0,0,1,38,91.87a7.52,7.52,0,0,1-.54-1.23,12.1,12.1,0,0,1-.34-1.24,11,11,0,0,1-.2-1.17c0-.37-.07-.71-.08-1a11.92,11.92,0,0,1,.05-2A10.1,10.1,0,0,1,37.11,83.87Zm28.21.9L64.26,87,62,85.9l1-2.24Zm4.15-1.43-1,2.24-2.25-1.11,1-2.23Zm11.11-3.87-1,2.23-2.25-1.1,1-2.24ZM84.73,78l-1,2.24-2.25-1.11,1-2.23Z" fill="#fff" fill-rule="evenodd"/></svg>