<svg enable-background="new 0 0 24 24" height="512" viewBox="0 0 24 24" width="512" xmlns="http://www.w3.org/2000/svg"><path d="m9.5 5c-.128 0-.256-.049-.354-.146l-4-4c-.142-.144-.185-.358-.108-.545s.26-.309.462-.309h8c.202 0 .385.122.462.309s.034.402-.108.545l-4 4c-.098.097-.226.146-.354.146zm-2.793-4 2.793 2.793 2.793-2.793z"/><path d="m5.5 24h-3c-.827 0-1.5-.673-1.5-1.5v-16c0-.827.673-1.5 1.5-1.5h3c.827 0 1.5.673 1.5 1.5v16c0 .827-.673 1.5-1.5 1.5zm-3-18c-.275 0-.5.224-.5.5v16c0 .276.225.5.5.5h3c.275 0 .5-.224.5-.5v-16c0-.276-.225-.5-.5-.5z"/><path d="m21.5 24h-8c-.827 0-1.5-.673-1.5-1.5v-16c0-.827.673-1.5 1.5-1.5h8c.827 0 1.5.673 1.5 1.5v16c0 .827-.673 1.5-1.5 1.5zm-8-18c-.275 0-.5.224-.5.5v16c0 .276.225.5.5.5h8c.275 0 .5-.224.5-.5v-16c0-.276-.225-.5-.5-.5z"/><path d="m6.5 15h-5c-.276 0-.5-.224-.5-.5s.224-.5.5-.5h5c.276 0 .5.224.5.5s-.224.5-.5.5z"/><path d="m22.5 15h-10c-.276 0-.5-.224-.5-.5s.224-.5.5-.5h10c.276 0 .5.224.5.5s-.224.5-.5.5z"/><path d="m17.5 24c-.276 0-.5-.224-.5-.5v-18c0-.276.224-.5.5-.5s.5.224.5.5v18c0 .276-.224.5-.5.5z"/></svg>