<?xml version="1.0" encoding="utf-8"?>
<svg version="1.1" id="Alee_Moqadam" xmlns="http://www.w3.org/2000/svg" viewBox="0 0 24 24">
<path fill="none" stroke="#000000" stroke-linecap="round" stroke-linejoin="round" 
	d="M1.5,11.9L1.5,11.9
	c0-4.1,3.4-7.5,7.4-7.5H15c4.1,0,7.4,3.4,7.4,7.4l0,0c0,4.1-3.4,7.4-7.4,7.4H8.9C4.9,19.4,1.5,16,1.5,11.9z M7.4,9.2v5.6 M10.2,12
	H4.6 M14.2,11.3L14.2,11.3c-0.4,0-0.7,0.3-0.7,0.7l0,0c0,0.4,0.3,0.7,0.7,0.7l0,0c0.4,0,0.7-0.3,0.7-0.7l0,0
	C15,11.6,14.6,11.3,14.2,11.3z M18.6,12.8L18.6,12.8c0.4,0,0.7-0.3,0.7-0.7l0,0c0-0.4-0.3-0.7-0.7-0.7l0,0c-0.4,0-0.7,0.3-0.7,0.7
	l0,0C17.8,12.4,18.2,12.8,18.6,12.8z M16.4,15L16.4,15c0.4,0,0.7-0.3,0.7-0.7l0,0c0-0.4-0.3-0.7-0.7-0.7l0,0c-0.4,0-0.7,0.3-0.7,0.7
	l0,0C15.7,14.7,16,15,16.4,15z M16.4,10.6L16.4,10.6c0.4,0,0.7-0.3,0.7-0.7l0,0c0-0.4-0.3-0.7-0.7-0.7l0,0c-0.4,0-0.7,0.3-0.7,0.7
	l0,0C15.7,10.3,16,10.6,16.4,10.6z"/>
</svg>
