<?xml version="1.0" encoding="utf-8"?>
<svg version="1.1" id="Alee_Moqadam" xmlns="http://www.w3.org/2000/svg" viewBox="0 0 24 24">
<path fill="none" stroke="#000000" stroke-linecap="round" stroke-linejoin="round" 
	d="M20.3,4.6H3.7
	c-1.1,0-2.1,0.9-2.1,2.1v10.7c0,1.2,0.9,2.1,2.1,2.1h16.6c1.1,0,2.1-0.9,2.1-2.1V6.7C22.3,5.5,21.4,4.6,20.3,4.6z M12.1,8.5H12
	 M12.1,12.1H12 M9,8.5H8.8 M9,12.1H8.8 M5.9,12.1H5.7 M5.9,8.5H5.7 M16.1,15.5H7.8 M15.2,12.1H15 M15.2,8.5H15 M18.3,12.1h-0.1
	 M18.3,8.5h-0.1"/>
</svg>
