<?xml version="1.0" encoding="utf-8"?>
<svg version="1.1" id="Alee_Moqadam" xmlns="http://www.w3.org/2000/svg" viewBox="0 0 24 24">
<path fill="none" stroke="#000000" stroke-linecap="round" stroke-linejoin="round" 
	d="
	M12,7.7l9.6,0.1 M15.3,14.8l-4.5,7.7 M8.1,14L3.5,5.7 M12,22.5C6.1,22.5,1.5,17.9,1.5,12C1.5,6.1,6.1,1.5,12,1.5
	c5.9,0,10.5,4.6,10.5,10.5C22.5,17.9,17.9,22.5,12,22.5z M12,16.3c-2.4,0-4.3-1.9-4.3-4.3c0-2.4,1.9-4.3,4.3-4.3
	c2.4,0,4.3,1.9,4.3,4.3C16.3,14.4,14.4,16.3,12,16.3z"/>
</svg>
