<?xml version="1.0" encoding="utf-8"?>
<svg version="1.1" id="Alee_Moqadam" xmlns="http://www.w3.org/2000/svg" viewBox="0 0 24 24">
<path fill="none" stroke="#000000" stroke-linecap="round" stroke-linejoin="round" 
	d="M12,16.5
	c-2,0-3.5-1.6-3.5-3.5c0-2,1.6-3.5,3.5-3.5s3.5,1.6,3.5,3.5C15.5,15,13.9,16.5,12,16.5z M18.6,19.4c0-2,1.7-3.7,3.9-3.7 M3.6,19.5
	c-1.1,0-2-1-2-2.1V8.6c0-1.1,0.9-2,2-2h16.9c1.1,0,2,0.9,2,2v8.9c0,1.1-0.9,2-2,2H3.6L3.6,19.5z M22.4,10.4c-2.1,0-3.9-1.6-3.9-3.7
	 M5.4,6.6c0,2-1.5,3.8-3.7,3.8 M18.9,13h-0.2 M4.3,4.6h15.2 M5.2,13H5 M1.6,15.6c2.1,0,3.9,1.6,3.9,3.7"/>
</svg>
