<?xml version="1.0" encoding="utf-8"?>
<svg version="1.1" id="Alee_Moqadam" xmlns="http://www.w3.org/2000/svg" viewBox="0 0 24 24">
<path fill="none" stroke="#000000" stroke-linecap="round" stroke-linejoin="round" 
	d="M10.2,13.3L10.2,13.3
	c0-3.4,2.8-6.1,6.1-6.1l0,0c3.4,0,6.1,2.8,6.1,6.1l0,0c0,3.4-2.8,6.1-6.1,6.1l0,0C13,19.5,10.2,16.7,10.2,13.3z M16.8,10.3l-1.9,3.1
	h2.8l-1.7,3 M12.8,18.3H3.4c-1,0-1.9-0.9-1.9-1.9V6.7c0-1.1,0.9-2.1,1.9-2.1h19l-0.5,0.9c-0.3,0.6-0.3,1.3,0,1.8l0,0
	c0.3,0.6,0.3,1.3,0,1.8l0,0c-0.2,0.4-0.3,0.8-0.2,1.3 M8.1,14.7H4.7 M4.7,12.7h2.1 M4.7,10.2h3L6.2,7.9L4.7,10.2z"/>
</svg>
