<?xml version="1.0" encoding="utf-8"?>
<svg version="1.1" id="Alee_Moqadam" xmlns="http://www.w3.org/2000/svg" viewBox="0 0 24 24">
<path fill="none" stroke="#000000" stroke-linecap="round" stroke-linejoin="round" 
	d="M8.9,4.5h6.2
	c4.1,0,7.4,3.3,7.4,7.5l0,0c0,4.1-3.3,7.5-7.4,7.5H8.9c-4.1,0-7.4-3.3-7.4-7.5l0,0C1.5,7.9,4.8,4.5,8.9,4.5z M15.5,15.5h1.8
	c1,0,1.7-0.8,1.7-1.7v-3.5c0-1-0.8-1.7-1.7-1.7h-1.8V15.5 M13.8,15.5h-1.7c-0.9,0-1.7-0.8-1.7-1.7v-3.5c0-1,0.8-1.7,1.7-1.7h1.6
	 M4.9,15.5v-5.3c0-1,0.8-1.7,1.7-1.7l0,0c0.9,0,1.7,0.8,1.7,1.7v5.3 M8.3,12H4.9 M10.4,12h3.4"/>
</svg>
