<?xml version="1.0" encoding="utf-8"?>
<svg version="1.1" id="Alee_Moqadam" xmlns="http://www.w3.org/2000/svg" viewBox="0 0 24 24">
<path fill="none" stroke="#000000" stroke-linecap="round" stroke-linejoin="round" 
	d="M19.6,9.2L19.6,9.2
	c0.3,0,0.5-0.2,0.5-0.5l0,0c0-0.3-0.2-0.5-0.5-0.5l0,0c-0.3,0-0.5,0.2-0.5,0.5l0,0C19.1,9,19.3,9.2,19.6,9.2z M22.4,9.5
	c0-2-1.6-3.6-3.6-3.6h-2.2l-0.9-1.1c-0.4-0.4-0.9-0.7-1.5-0.7H10c-0.6,0-1.1,0.3-1.5,0.7L7.6,5.9H5.3c-2,0-3.6,1.6-3.6,3.6v6.8
	c0,2,1.6,3.6,3.6,3.6h13.6c2,0,3.6-1.6,3.5-3.6C22.4,16.3,22.4,9.5,22.4,9.5z M12.1,17.5L12.1,17.5c2.5,0,4.5-2,4.5-4.5l0,0
	c0-2.5-2-4.5-4.5-4.5l0,0c-2.5,0-4.5,2-4.5,4.5l0,0C7.6,15.5,9.6,17.5,12.1,17.5z"/>
</svg>
