<?xml version="1.0" encoding="utf-8"?>
<svg version="1.1" id="Alee_Moqadam" xmlns="http://www.w3.org/2000/svg" viewBox="0 0 24 24">
<path fill="none" stroke="#000000" stroke-linecap="round" stroke-linejoin="round" 
	d="M20.7,19.4H10v-1.5
	c0-1.4-1.1-2.5-2.5-2.5l0,0c-1.4,0-2.5,1.1-2.5,2.5v1.5H3.2c-1,0-1.7-0.9-1.7-1.8V6.3c0-0.9,0.8-1.7,1.7-1.7H5v1.5
	c0,1.4,1.1,2.5,2.5,2.5l0,0c1.4,0,2.5-1.1,2.5-2.5V4.6h10.8c1,0,1.7,0.9,1.7,1.8v11.2C22.5,18.6,21.7,19.4,20.7,19.4z M13.5,19.4
	v-4.9H15c1.4,0,2.5-1.1,2.5-2.5l0,0c0-1.4-1.1-2.5-2.5-2.5h-1.5V4.6"/>
</svg>
