<?xml version="1.0" encoding="utf-8"?>
<svg version="1.1" id="Alee_Moqadam" xmlns="http://www.w3.org/2000/svg" viewBox="0 0 24 24">
<path fill="none" stroke="#000000" stroke-linecap="round" stroke-linejoin="round" 
	d="M14.6,12.7l1,0.6
	c0.9,0.5,1.6,1.2,1.6,2v5.6 M12,14c-1.9,0-3.2-1.5-3.2-3.2V8.3c0-1.9,1.5-3.2,3.2-3.2c1.9,0,3.2,1.5,3.2,3.2v2.4
	C15.3,12.5,13.9,14,12,14z M6.7,20.9v-5.6c0-0.8,0.7-1.5,1.6-2l1.2-0.5 M12,22.4C6.3,22.4,1.6,17.7,1.6,12S6.3,1.6,12,1.6
	S22.4,6.3,22.4,12S17.7,22.4,12,22.4z"/>
</svg>
