<?xml version="1.0" encoding="utf-8"?>
<svg version="1.1" id="Alee_Moqadam" xmlns="http://www.w3.org/2000/svg" viewBox="0 0 24 24">
<path fill="none" stroke="#000000" stroke-linecap="round" stroke-linejoin="round" 
	d="M8.9,4.6h6.2
	c4.1,0,7.4,3.3,7.4,7.4l0,0c0,4.1-3.3,7.4-7.4,7.4H8.9c-4.1,0-7.4-3.3-7.4-7.4l0,0C1.5,7.9,4.8,4.6,8.9,4.6z M15.5,12h1.8
	c1,0,1.7-0.8,1.7-1.7l0,0c0-1-0.8-1.7-1.7-1.7h-1.8v7 M19,15.5L17.3,12 M10.4,15.5V8.6h0c0.9,0,1.7,0.8,1.7,1.7V12v-1.7
	c0-0.9,0.8-1.7,1.7-1.7h0v6.9 M8.3,13.8c0,0.9-0.8,1.7-1.7,1.7h0c-1,0-1.7-0.8-1.7-1.7v-3.5c0-1,0.8-1.7,1.7-1.7h0
	c0.9,0,1.7,0.8,1.7,1.7L8.3,13.8z"/>
</svg>
