<?xml version="1.0" encoding="utf-8"?>
<svg version="1.1" id="Alee_Moqadam" xmlns="http://www.w3.org/2000/svg" viewBox="0 0 24 24">
<path fill="none" stroke="#000000" stroke-linecap="round" stroke-linejoin="round" 
	d="M17.1,20.1l-1,0.9l-0.9-0.9c-3.2-2.9-5.3-4.8-5.3-7.2c0-1.9,1.5-3.4,3.4-3.4c1.1,0,2.1,0.5,2.8,1.3c0.8-0.8,1.8-1.3,2.9-1.3
	c1.9,0,3.4,1.5,3.4,3.4C22.5,15.3,20.4,17.1,17.1,20.1z M16.1,21H1.5v-5.3c0-1,0.8-1.8,2-2.5l1.3-0.6 M9.9,13.6
	c-0.6,0.3-1.1,0.5-1.8,0.5c-2.2,0-4-1.7-4-4V7c0-2.2,1.7-4,4-4c2.2,0,4,1.7,4,4v2.6"/>
</svg>
