<?xml version="1.0" encoding="utf-8"?>
<svg version="1.1" id="Alee_Moqadam" xmlns="http://www.w3.org/2000/svg" viewBox="0 0 24 24">
<path fill="none" stroke="#000000" stroke-linecap="round" stroke-linejoin="round" 
	d="M7.6,8.1V7.2
	c0-0.2,0.2-0.4,0.5-0.4H12c0,0,0,0.2,0,0.4l0,0c0,1-1,1.7-2.2,1.7H8.7C8.1,9,7.6,8.6,7.6,8.1z M15.9,6.8H12c0,0,0,0.2,0,0.4l0,0
	c0,1,1,1.7,2.2,1.7h1.1c0.6,0,1.1-0.4,1.1-0.9V7.2C16.4,7,16.2,6.8,15.9,6.8z M19,15.8H4.9 M13.8,13.8h4 M6.2,13.8h4 M4.9,17.7H19
	 M19,19.7H4.9 M7.6,9h8.8 M15.5,12.5l1.4,0.7c1.3,0.7,2.2,1.6,2.2,2.7v5.8H13h-1h-1H4.9v-5.8c0-1.1,0.9-2,2.2-2.7l1.4-0.6 M12,14.2
	c-2.4,0-4.4-1.9-4.4-4.4V6.6c0-2.4,1.9-4.4,4.4-4.4c2.4,0,4.4,1.9,4.4,4.4v3.2C16.4,12.2,14.4,14.2,12,14.2z"/>
</svg>
