<?xml version="1.0" encoding="utf-8"?>
<svg version="1.1" id="Alee_Moqadam" xmlns="http://www.w3.org/2000/svg" viewBox="0 0 24 24">
<path fill="none" stroke="#000000" stroke-linecap="round" stroke-linejoin="round" 
	d="M8.9,4.6h6.2
	c4.1,0,7.4,3.3,7.4,7.4l0,0c0,4.1-3.3,7.4-7.4,7.4H8.9c-4.1,0-7.4-3.3-7.4-7.4l0,0C1.5,7.9,4.8,4.6,8.9,4.6z M15.5,15.5L15.5,15.5
	c1.9,0,3.5-1.6,3.5-3.5l0,0c0-1.9-1.6-3.5-3.5-3.5l0,0V15.5 M8.4,8.5v5.3c0,1-0.8,1.7-1.7,1.7l0,0c-1,0-1.7-0.8-1.7-1.7V8.5
	 M13.7,8.5H12c-1,0-1.7,0.8-1.7,1.7l0,0c0,1,0.8,1.7,1.7,1.7l0,0c1,0,1.7,0.8,1.7,1.7l0,0c0,1-0.8,1.7-1.7,1.7h-1.7"/>
</svg>
