<?xml version="1.0" encoding="utf-8"?>
<!-- Generator: Adobe Illustrator 23.0.1, SVG Export Plug-In . SVG Version: 6.00 Build 0)  -->
<svg version="1.1" id="Layer_1" xmlns="http://www.w3.org/2000/svg" xmlns:xlink="http://www.w3.org/1999/xlink" x="0px" y="0px"
	 viewBox="0 0 24 24" enable-background="new 0 0 24 24" xml:space="preserve">
<g>
	<g>
		
			<path fill="none" stroke="#DDDDDD" stroke-width="0.1" stroke-linecap="round" stroke-linejoin="round" stroke-miterlimit="10" d="
			M18.5,1.1c0.8,0,1.4,0.6,1.4,1.4v19.1c0,0.8-0.6,1.4-1.4,1.4H5.4C4.6,23,4,22.4,4,21.6V2.5c0-0.8,0.6-1.4,1.4-1.4H18.5"/>
	</g>
	<g>
		
			<path fill="none" stroke="#DDDDDD" stroke-width="0.1" stroke-linecap="round" stroke-linejoin="round" stroke-miterlimit="10" d="
			M21.5,4.1c0.8,0,1.4,0.6,1.4,1.4v13.1c0,0.8-0.6,1.4-1.4,1.4h-19c-0.8,0-1.4-0.6-1.4-1.4V5.5c0-0.8,0.6-1.4,1.4-1.4H21.5"/>
	</g>
	<g>
		
			<path fill="none" stroke="#DDDDDD" stroke-width="0.1" stroke-linecap="round" stroke-linejoin="round" stroke-miterlimit="10" d="
			M20.1,2.6c0.8,0,1.4,0.6,1.4,1.4v16c0,0.8-0.6,1.4-1.4,1.4H3.9c-0.8,0-1.4-0.6-1.4-1.4V4c0-0.8,0.6-1.4,1.4-1.4H20.1"/>
	</g>
	<g>
		
			<path fill="none" stroke="#DDDDDD" stroke-width="0.1" stroke-linecap="round" stroke-linejoin="round" stroke-miterlimit="10" d="
			M12.1,1.1C18.1,1.1,23,6,23,12s-4.9,10.9-10.9,10.9h-0.2C5.9,22.9,1,18,1,12S5.9,1.1,11.9,1.1H12.1"/>
	</g>
	<g>
		
			<path fill="none" stroke="#DDDDDD" stroke-width="0.1" stroke-linecap="round" stroke-linejoin="round" stroke-miterlimit="10" d="
			M12,7.1c2.7,0,4.9,2.2,4.9,4.9s-2.2,4.9-4.9,4.9S7.1,14.7,7.1,12S9.3,7.1,12,7.1"/>
	</g>
	
		<line fill="none" stroke="#DDDDDD" stroke-width="0.1" stroke-linecap="round" stroke-linejoin="round" stroke-miterlimit="10" x1="8.5" y1="24" x2="8.5" y2="0"/>
	
		<line fill="none" stroke="#DDDDDD" stroke-width="0.1" stroke-linecap="round" stroke-linejoin="round" stroke-miterlimit="10" x1="12" y1="0" x2="12" y2="24"/>
	
		<line fill="none" stroke="#DDDDDD" stroke-width="0.1" stroke-linecap="round" stroke-linejoin="round" stroke-miterlimit="10" x1="15.5" y1="0" x2="15.5" y2="24"/>
	
		<line fill="none" stroke="#DDDDDD" stroke-width="0.1" stroke-linecap="round" stroke-linejoin="round" stroke-miterlimit="10" x1="0" y1="8.5" x2="24" y2="8.5"/>
	
		<line fill="none" stroke="#DDDDDD" stroke-width="0.1" stroke-linecap="round" stroke-linejoin="round" stroke-miterlimit="10" x1="24" y1="12" x2="0" y2="12"/>
	
		<line fill="none" stroke="#DDDDDD" stroke-width="0.1" stroke-linecap="round" stroke-linejoin="round" stroke-miterlimit="10" x1="24" y1="15.5" x2="0" y2="15.5"/>
	
		<line fill="none" stroke="#DDDDDD" stroke-width="0.1" stroke-linecap="round" stroke-linejoin="round" stroke-miterlimit="10" x1="0.1" y1="0.1" x2="23.9" y2="23.9"/>
	
		<line fill="none" stroke="#DDDDDD" stroke-width="0.1" stroke-linecap="round" stroke-linejoin="round" stroke-miterlimit="10" x1="23.9" y1="0.1" x2="0.1" y2="23.9"/>
</g>
<path fill="none" stroke="#000000" stroke-linecap="round" stroke-linejoin="round" stroke-miterlimit="10" d="M15.6,9.3
	c-0.2-0.4-0.5-0.8-0.8-1.2c-0.3-0.3-0.8-0.6-1.2-0.8S12.6,7,12,7c-0.7,0-1.4,0.1-1.9,0.4S9,8.1,8.7,8.6C8.3,9,8,9.6,7.9,10.1
	c-0.2,0.6-0.3,1.2-0.3,1.9v0.3c0,0.7,0.1,1.3,0.3,1.9c0.2,0.6,0.4,1.1,0.8,1.5s0.8,0.8,1.4,1c0.5,0.3,1.2,0.4,1.9,0.4
	c0.5,0,1-0.1,1.5-0.3c0.5-0.2,0.9-0.4,1.2-0.7c0.4-0.3,0.6-0.7,0.8-1.1 M12,1.5C6.2,1.5,1.5,6.2,1.5,12S6.2,22.5,12,22.5
	S22.5,17.8,22.5,12S17.8,1.5,12,1.5z"/>
</svg>
