<?xml version="1.0" encoding="utf-8"?>
<svg version="1.1" id="Alee_Moqadam" xmlns="http://www.w3.org/2000/svg" viewBox="0 0 24 24">
<path fill="none" stroke="#000000" stroke-linecap="round" stroke-linejoin="round" 
	d="M19.4,16.3L19.4,16.3
	c0,3.3-2.7,6.1-6.1,6.1l0,0c-3.3,0-6.1-2.7-6.1-6.1l0,0c0-3.3,2.7-6.1,6.1-6.1l0,0C16.7,10.2,19.5,13.1,19.4,16.3z M13,19.6v-1
	 M15,14h-3v2.3h3v2.3h-3 M14,14v-1 M10.4,21.7c-0.5-0.1-0.9,0-1.3,0.2l0,0c-0.5,0.3-1.2,0.3-1.8,0l0,0c-0.5-0.3-1.2-0.3-1.8,0
	l-0.9,0.5v-19c0-1,1-1.9,2.1-1.9h9.7c1,0,1.9,0.9,1.9,1.9v9.4 M8.5,5.1h6 M13.5,7.5h-4"/>
</svg>
