<?xml version="1.0" encoding="utf-8"?>
<svg version="1.1" id="Alee_Moqadam" xmlns="http://www.w3.org/2000/svg" viewBox="0 0 24 24">
<path fill="none" stroke="#000000" stroke-linecap="round" stroke-linejoin="round" 
	d="M10.2,13.3L10.2,13.3
	c0-3.4,2.8-6.1,6.1-6.1l0,0c3.4,0,6.1,2.8,6.1,6.1l0,0c0,3.4-2.8,6.1-6.1,6.1l0,0C13,19.5,10.2,16.7,10.2,13.3z M18.4,15.4
	L18.4,15.4 M14.1,11.2L14.1,11.2 M18,11.3l-3.5,3.8 M12.8,18.3H3.4c-1.1,0-1.9-1-1.9-2.1V6.7c0-1.1,0.9-2.1,1.9-2.1h17.1
	c1.1,0,1.9,1,1.9,2.1v7 M1.7,9.2h10"/>
</svg>
