<?xml version="1.0" encoding="utf-8"?>
<svg version="1.1" id="Alee_Moqadam" xmlns="http://www.w3.org/2000/svg" viewBox="0 0 24 24">
<path fill="none" stroke="#000000" stroke-linecap="round" stroke-linejoin="round" 
	d="
	M7.4,21.4c-2.4,1-4.4,1.1-5.4,0.1c-2-2.1,0.7-7.8,6.3-13.1C13.9,3,19.9,0.4,22,2.5c1,1,0.8,3-0.3,5.2 M1.5,13.1
	c0-0.4-0.1-0.7-0.1-1.1C1.4,6.3,6.1,1.7,12,1.7S22.6,6.3,22.6,12h-17 M17.9,14.4c-0.9,2.3-3.3,3.9-5.9,3.9c-3.6,0-6.4-2.8-6.4-6.2
	 M11.4,5.8c0.2,0,0.4,0,0.6,0c2.3,0,4.3,1.1,5.4,2.9H8 M17.9,14.4h4.4c-1.1,4.5-5.3,7.9-10.3,7.9c-4.4,0-8-2.5-9.7-6"/>
</svg>
