<?xml version="1.0" encoding="utf-8"?>
<svg version="1.1" id="Alee_Moqadam" xmlns="http://www.w3.org/2000/svg" viewBox="0 0 24 24">
<path fill="none" stroke="#000000" stroke-linecap="round" stroke-linejoin="round" 
	d="M16.2,22.5H7.8
	c-0.9,0-1.6-0.7-1.6-1.6V3.1c0-0.9,0.7-1.6,1.6-1.6h8.4c0.9,0,1.6,0.7,1.6,1.6v17.8C17.8,21.8,17.1,22.5,16.2,22.5z M12.7,7.4V6
	 M9.1,14.2h4.2c0.9,0,1.7-0.7,1.7-1.7l0,0c0-0.9-0.7-1.7-1.7-1.7h-2.5c-0.9,0-1.7-0.7-1.7-1.7l0,0c0-0.9,0.7-1.7,1.7-1.7H15
	 M11.4,15.8v-1.6 M6.2,19.3h11.6"/>
</svg>
