<?xml version="1.0" encoding="utf-8"?>
<svg version="1.1" id="Alee_Moqadam" xmlns="http://www.w3.org/2000/svg" viewBox="0 0 24 24">
<path fill="none" stroke="#000000" stroke-linecap="round" stroke-linejoin="round" 
	d="M3.2,4.6h17.6
	c1,0,1.7,0.9,1.7,1.8v11.2c0,1-0.7,1.8-1.7,1.8H3.2c-1,0-1.7-0.9-1.7-1.8V6.4C1.5,5.4,2.2,4.6,3.2,4.6z M10.2,13.3 M17.1,13.3V8.5
	h-6.9l0,4.7c0-0.9-0.8-1.6-1.7-1.6h0c-0.9,0-1.7,0.8-1.7,1.7v0c0,0.9,0.8,1.7,1.7,1.7h0c0.9,0,1.7-0.8,1.7-1.7v0 M13.8,13.2
	L13.8,13.2c0,0.9,0.8,1.7,1.7,1.7h0c0.9,0,1.7-0.8,1.7-1.7v0c0-0.9-0.8-1.7-1.7-1.7h0C14.5,11.6,13.8,12.3,13.8,13.2z"/>
</svg>
