<?xml version="1.0" encoding="utf-8"?>
<svg version="1.1" id="Alee_Moqadam" xmlns="http://www.w3.org/2000/svg" viewBox="0 0 24 24">
<path fill="none" stroke="#000000" stroke-linecap="round" stroke-linejoin="round" 
	d="M21.5,9l-0.9,3.1V12c0-3-1.5-5.6-3.8-7.1
	l3.1,0.9C21.1,6.2,21.9,7.7,21.5,9z M18.3,10.1c-0.3,1.2-1.5,2-2.8,1.7c-1.2-0.3-2-1.5-1.7-2.8c0.3-1.2,1.5-2,2.8-1.7
	C17.8,7.6,18.6,8.8,18.3,10.1z M12,13c-0.6,0-1-0.5-1-1c0-0.6,0.5-1,1-1c0.6,0,1,0.5,1,1C13,12.6,12.6,13,12,13z M4.9,7.3l0.9-3.1
	C6.2,2.9,7.7,2.1,9,2.5l3.1,0.9H12C9,3.4,6.4,5,4.9,7.3z M7.3,19.1l-3.1-0.9c-1.4-0.4-2.1-1.9-1.7-3.2l0.9-3.1V12
	C3.4,15,5,17.6,7.3,19.1z M7.3,7.5c0.3-1.2,1.5-2,2.8-1.7c1.2,0.3,2,1.5,1.7,2.8c-0.3,1.2-1.5,2-2.8,1.7l0,0C7.8,9.9,7,8.7,7.3,7.5z
	 M5.7,13.9c0.3-1.2,1.5-2,2.8-1.7c1.2,0.3,2,1.5,1.7,2.8c-0.3,1.2-1.5,2-2.8,1.7C6.2,16.4,5.4,15.2,5.7,13.9z M13.9,18.3
	c-1.2-0.3-2-1.5-1.7-2.8c0.3-1.2,1.5-2,2.8-1.7c1.2,0.3,2,1.5,1.7,2.8C16.4,17.8,15.2,18.6,13.9,18.3z M19.1,16.7l-0.9,3.1
	c-0.4,1.4-1.9,2.1-3.2,1.7l-3.1-0.9H12C15,20.6,17.6,19,19.1,16.7z"/>
</svg>
