<?xml version="1.0" encoding="utf-8"?>
<svg version="1.1" id="Alee_Moqadam" xmlns="http://www.w3.org/2000/svg" viewBox="0 0 24 24">
<path fill="none" stroke="#000000" stroke-linecap="round" stroke-linejoin="round" 
	d="M5,7.7V6.2 c0-0.9,0.7-1.7,1.6-1.7h14.2c0.9,0,1.6,0.8,1.6,1.7v7.9c0,0.9-0.7,1.7-1.6,1.7h-1.4 M17.4,19.5H3.2c-0.9,0-1.6-0.8-1.6-1.7v-8
	c0-0.9,0.7-1.7,1.6-1.7h14.2c0.9,0,1.6,0.8,1.6,1.7v7.9C19,18.7,18.3,19.5,17.4,19.5z M1.7,11.7h17.1 M4.7,14.8
	c0.4,0,0.8,0.3,0.8,0.8s-0.4,0.8-0.8,0.8s-0.8-0.3-0.8-0.8C3.9,15.2,4.2,14.8,4.7,14.8z M6.4,14.8c0.4,0,0.8,0.3,0.8,0.8
	s-0.4,0.8-0.8,0.8s-0.8-0.3-0.8-0.8C5.6,15.2,5.9,14.8,6.4,14.8z"/>
</svg>
