<?xml version="1.0" encoding="utf-8"?>
<svg version="1.1" id="Alee_Moqadam" xmlns="http://www.w3.org/2000/svg" viewBox="0 0 24 24">
<path fill="none" stroke="#000000" stroke-linecap="round" stroke-linejoin="round" 
	d="M3.2,4.6h17.6
	c1,0,1.7,0.9,1.7,1.8v11.2c0,1-0.7,1.8-1.7,1.8H3.2c-1,0-1.7-0.9-1.7-1.8V6.4C1.5,5.4,2.2,4.6,3.2,4.6z M15.8,15.5l-7.2-7l-0.1,6.9
	L4.8,12v3.5H15.8z M15.8,10.2L15.8,10.2c0,1,0.8,1.8,1.7,1.8l0,0c1,0,1.7-0.8,1.7-1.7l0,0c0-1-0.8-1.7-1.7-1.7l0,0
	C16.6,8.5,15.8,9.3,15.8,10.2z"/>
</svg>
