<?xml version="1.0" encoding="utf-8"?>
<svg version="1.1" id="Alee_Moqadam" xmlns="http://www.w3.org/2000/svg" viewBox="0 0 24 24">
<path fill="none" stroke="#000000" stroke-linecap="round" stroke-linejoin="round" 
	d="M15.5,10.9V3.1
	L4.9,7.9V6H3.1v14.6H21V8.5L15.5,10.9z M8.5,17.2v0.2 M8.5,14.2v0.2 M8.5,11.3v0.2 M12,17.2v0.2 M12,14.2v0.2 M12,11.3v0.2 M12,8
	v0.2 M4.1,4.3l0.7-0.7c0.3-0.4,0.9-0.4,1.2,0l0,0C6.3,4,6.9,4,7.3,3.7l0,0c0.3-0.4,0.9-0.4,1.2,0l0,0c0.3,0.4,0.9,0.4,1.2,0
	 M17.9,17.2v0.2 M17.9,14.2v0.2"/>
</svg>
