<?xml version="1.0" encoding="utf-8"?>
<svg version="1.1" id="Alee_Moqadam" xmlns="http://www.w3.org/2000/svg" viewBox="0 0 24 24">
<path fill="none" stroke="#000000" stroke-linecap="round" stroke-linejoin="round" 
	d="M21,19.5h-9.4c-1,0-1.6-1.1-1.2-2l4.8-8.2c0.5-0.9,1.8-0.9,2.3,0l4.8,8.2C22.7,18.4,22,19.5,21,19.5z M10.3,18.8H3.5
	c-1.1,0-1.9-0.9-1.9-1.9V6.4c0-1.1,0.9-1.9,1.9-1.9h16.2c1.1,0,1.9,0.9,1.9,1.9v9.8 M4.9,15h1.3 M9,15h1.3 M8.1,11.9
	c-0.7,0-1.1-0.5-1.1-1.1c0-0.7,0.5-1.1,1.1-1.1c0.6,0,1.1,0.4,1.1,1.1C9.2,11.5,8.7,11.9,8.1,11.9z M5.8,11.9
	c-0.7,0-1.1-0.5-1.1-1.1c0-0.7,0.5-1.1,1.1-1.1s1.1,0.4,1.1,1.1C6.9,11.5,6.4,11.9,5.8,11.9z M16.3,14.5v-2.2 M16.3,16.8v-0.2"/>
</svg>
