<?xml version="1.0" encoding="utf-8"?>
<svg version="1.1" id="Alee_Moqadam" xmlns="http://www.w3.org/2000/svg" viewBox="0 0 24 24">
<path fill="none" stroke="#000000" stroke-linecap="round" stroke-linejoin="round" 
	d="M18.4,10.4L15.5,19
	 M8.5,19l-2.9-8.6 M5.2,8.2c0-3.7,3-6.8,6.8-6.8c3.7,0,6.8,3,6.8,6.8c0,3.7-3,6.8-6.8,6.8C8.3,15,5.2,12,5.2,8.2z M8.9,8.2
	c0-3.7,1.4-6.8,3.1-6.8s3.1,3,3.1,6.8S13.7,15,12,15S8.9,12,8.9,8.2z M8.5,19h7v2.6c0,0.5-0.4,0.9-0.9,0.9H9.4
	c-0.5,0-0.9-0.4-0.9-0.9V19L8.5,19z"/>
</svg>
