<?xml version="1.0" encoding="utf-8"?>
<svg version="1.1" id="Alee_Moqadam" xmlns="http://www.w3.org/2000/svg" viewBox="0 0 24 24">
<path fill="none" stroke="#000000" stroke-linecap="round" stroke-linejoin="round" 
	d="M22.4,17.5
	c0,1.1-0.9,2-2,2H1.6l0.5-1.2c0.3-0.8,0.3-1.7,0-2.5l0,0c-0.3-0.8-0.3-1.7,0-2.5l0,0c0.3-0.8,0.3-1.7,0-2.5l0,0
	c-0.3-0.8-0.3-1.7,0-2.5l0,0c0.3-0.8,0.3-1.7,0-2.5L1.6,4.6h18.8c1.1,0,2,0.9,2,2V17.5z M17.4,9.6v0.9 M16.6,15.5v1 M15.5,15.5h3V13
	h-3v-2.5h3 M12,15.5H6 M6,12h4"/>
</svg>
