<?xml version="1.0" encoding="utf-8"?>
<svg version="1.1" id="Alee_Moqadam" xmlns="http://www.w3.org/2000/svg" viewBox="0 0 24 24">
<path fill="none" stroke="#000000" stroke-linecap="round" stroke-linejoin="round" 
	d="M3.3,4.6H11
	c0.6,0,1,0.4,1,1l0,0c0-0.6,0.4-1,1-1h7.8c1,0,1.7,0.9,1.7,1.8v11.4c0,0.9-0.8,1.7-1.7,1.7H14c-1.1,0-2-0.9-2-2V5.6v12
	c0,1.1-0.9,2-2,2H3.2c-1,0-1.7-0.9-1.7-1.8V6.4C1.5,5.4,2.3,4.6,3.3,4.6z M8.5,15.5H5.1 M15.4,15.5h3.4 M18.8,12h-3.4 M15.4,8.5h3.4
	 M8.5,12H5.1 M5.1,8.5h3.4"/>
</svg>
