<?xml version="1.0" encoding="utf-8"?>
<svg version="1.1" id="Alee_Moqadam" xmlns="http://www.w3.org/2000/svg" viewBox="0 0 24 24">
<path fill="none" stroke="#000000" stroke-linecap="round" stroke-linejoin="round" 
	d="M13.4,18.7h-10
	c-1.1,0-1.9-0.9-1.9-1.9V6.4c0-1.1,0.9-1.9,1.9-1.9h16.3c1.1,0,1.9,0.9,1.9,1.9v3.7 M17.9,14.3h-3.3 M14.5,15.8v-3.2
	c0-1,0.8-1.7,1.7-1.7l0,0c1,0,1.7,0.8,1.7,1.7v3.2 M8.9,14.9h1.3 M16.3,19.4L16.3,19.4c3.4,0,6.1-2.7,6.1-6.1l0,0
	c0-3.4-2.7-6.1-6.1-6.1l0,0c-3.4,0-6.1,2.7-6.1,6.1l0,0C10.2,16.7,12.9,19.4,16.3,19.4z M4.8,14.9h1.3 M6.8,10.8L6.8,10.8
	c0,0.7-0.5,1.1-1.1,1.1l0,0c-0.7,0-1.1-0.5-1.1-1.1l0,0c0-0.7,0.5-1.1,1.1-1.1l0,0C6.3,9.7,6.8,10.1,6.8,10.8z M9.1,10.8L9.1,10.8
	c0,0.7-0.5,1.1-1.1,1.1l0,0c-0.7,0-1.1-0.5-1.1-1.1l0,0c0-0.7,0.5-1.1,1.1-1.1l0,0C8.6,9.7,9.1,10.1,9.1,10.8z"/>
</svg>
