<?xml version="1.0" encoding="utf-8"?>
<svg version="1.1" id="Alee_Moqadam" xmlns="http://www.w3.org/2000/svg" viewBox="0 0 24 24">
<path fill="none" stroke="#000000" stroke-linecap="round" stroke-linejoin="round" 
	d="M13.8,14.2h-4
	c-0.4,0-0.9-0.5-0.9-1v-2.8c0-0.5,0.4-1,0.9-1V8.2c0-1.1,1-2,2-2s2,0.9,2,2v1.2c0.4,0,0.9,0.5,0.9,1v2.8
	C14.7,13.7,14.3,14.2,13.8,14.2z M20,17H4c-1.3,0-2.3-1.1-2.3-2.3V5.8c0-1.3,1-2.3,2.3-2.3h16c1.3,0,2.3,1.1,2.3,2.3v8.9
	C22.3,16,21.3,17,20,17z M14.4,17c0,1.3,0.5,2.3,1.3,3.2l0.5,0.5H7.8l0.5-0.5c0.8-0.9,1.3-2,1.3-3.2 M9.8,9.4h4"/>
</svg>
