<?xml version="1.0" encoding="utf-8"?>
<svg version="1.1" id="Alee_Moqadam" xmlns="http://www.w3.org/2000/svg" viewBox="0 0 24 24">
<path fill="none" stroke="#000000" stroke-linecap="round" stroke-linejoin="round" 
	d="M16.1,21L16.1,21
	c2.7,0,4.8-2.1,4.8-4.8l0,0c0-2.7-2.1-4.8-4.8-4.8l0,0c-2.7,0-4.8,2.1-4.8,4.8l0,0C11.2,18.9,13.4,21,16.1,21z M16.1,21H5
	c-1.1,0-2-0.9-2-2V5.1c0-1.1,0.9-2,2-2h12.3c1.1,0,2,0.9,2,2v7.3 M9.7,8.7H6 M16.3,8.7h-3.7 M14.6,17.2h3.1 M17.7,15h-3.1 M9.3,17.2
	l-2.9-3.1 M6.4,17.2l2.9-3.1 M7.8,7.1v3.3"/>
</svg>
