<?xml version="1.0" encoding="utf-8"?>
<svg version="1.1" id="Alee_Moqadam" xmlns="http://www.w3.org/2000/svg" viewBox="0 0 24 24">
<path fill="none" stroke="#000000" stroke-linecap="round" stroke-linejoin="round" 
	d="M8.9,4.5h6.2
	c4.1,0,7.4,3.3,7.4,7.5l0,0c0,4.1-3.3,7.5-7.4,7.5H8.9c-4.1,0-7.4-3.3-7.4-7.5l0,0C1.5,7.9,4.8,4.5,8.9,4.5z M15.5,8.6v7l0,0
	c1,0,1.8-0.8,1.8-1.8v-1.7v1.7c0,1,0.8,1.8,1.8,1.8l0,0v-7 M11.9,12l1.9,3.5 M10.4,12h1.5c1,0,1.8-0.8,1.8-1.8l0,0
	c0-0.9-0.7-1.7-1.7-1.7h-1.6v7.1 M8.3,15.5v-0.1c0-1.9-1.5-3.4-3.4-3.4l0,0l3.4-3.4 M4.9,8.6v7"/>
</svg>
