<?xml version="1.0" encoding="utf-8"?>
<svg version="1.1" id="Alee_Moqadam" xmlns="http://www.w3.org/2000/svg" viewBox="0 0 24 24">
<path fill="none" stroke="#000000" stroke-linecap="round" stroke-linejoin="round" 
	d="M3.2,4.6h17.6
	c1,0,1.7,0.9,1.7,1.8v11.2c0,1-0.7,1.8-1.7,1.8H3.2c-1,0-1.7-0.9-1.7-1.8V6.4C1.5,5.4,2.2,4.6,3.2,4.6z M10.3,15.5v-7h1.5
	c1.1,0,2,0.9,2,2v3c0,1.1-0.9,2-2,2H10.3z M19.2,8.5h-1.5c-1.1,0-2,0.9-2,2v5 M15.9,12h3.3 M4.7,12h1.8c1,0,1.7-0.8,1.7-1.7l0,0
	c0-1-0.8-1.7-1.7-1.7H4.7v7"/>
</svg>
