<?xml version="1.0" encoding="utf-8"?>
<svg version="1.1" id="Alee_Moqadam" xmlns="http://www.w3.org/2000/svg" viewBox="0 0 24 24">
<path fill="none" stroke="#000000" stroke-linecap="round" stroke-linejoin="round" 
	d="M13.5,18.7H3.4
	c-1.1,0-1.9-0.9-1.9-1.9V6.4c0-1.1,0.9-1.9,1.9-1.9h16.3c1.1,0,1.9,0.9,1.9,1.9v3.7 M18.7,13.3h-2.4V9.6 M8.9,14.9h1.3 M16.3,19.4
	L16.3,19.4c3.4,0,6.1-2.7,6.1-6.1l0,0c0-3.4-2.7-6.1-6.1-6.1l0,0c-3.4,0-6.1,2.7-6.1,6.1l0,0C10.2,16.7,12.9,19.4,16.3,19.4z
	 M4.8,14.9h1.3 M6.8,10.8L6.8,10.8c0,0.7-0.5,1.1-1.1,1.1l0,0c-0.7,0-1.1-0.5-1.1-1.1l0,0c0-0.7,0.5-1.1,1.1-1.1l0,0
	C6.3,9.7,6.8,10.1,6.8,10.8z M9.1,10.8L9.1,10.8c0,0.7-0.5,1.1-1.1,1.1l0,0c-0.7,0-1.1-0.5-1.1-1.1l0,0c0-0.7,0.5-1.1,1.1-1.1l0,0
	C8.6,9.7,9.1,10.1,9.1,10.8z"/>
</svg>
