<?xml version="1.0" encoding="utf-8"?>
<svg version="1.1" id="Alee_Moqadam" xmlns="http://www.w3.org/2000/svg" viewBox="0 0 24 24">
<path fill="none" stroke="#000000" stroke-linecap="round" stroke-linejoin="round" 
	d="M3.2,4.6h17.6
	c1,0,1.7,0.9,1.7,1.8v11.2c0,1-0.7,1.8-1.7,1.8H3.2c-1,0-1.7-0.9-1.7-1.8V6.4C1.5,5.4,2.2,4.6,3.2,4.6z M13.7,15.5h-1.5
	c-1.1,0-2-0.9-2-2v-5 M15.7,15.5h1.8c1,0,1.7-0.8,1.7-1.7l0,0c0-1-0.8-1.7-1.7-1.7h-0.1c-1,0-1.7-0.8-1.7-1.7l0,0
	c0-1,0.8-1.7,1.7-1.7h1.8 M4.8,8.5l3.5,7 M8.2,8.5l-3.4,7"/>
</svg>
