<?xml version="1.0" encoding="utf-8"?>
<svg version="1.1" id="Alee_Moqadam" xmlns="http://www.w3.org/2000/svg" viewBox="0 0 24 24">
<path fill="none" stroke="#000000" stroke-linecap="round" stroke-linejoin="round" 
	d="M12.6,11.5l0.6,0.3
	c0.6,0.3,1.1,0.8,1.1,1.3v2.8H7.5v-2.8c0-0.5,0.4-1,1.1-1.3l0.6-0.3 M10.9,12.3c-1.1,0-2.1-0.9-2.1-2.1V8.6c0-1.1,0.9-2.1,2.1-2.1
	C12,6.5,13,7.4,13,8.6v1.5C13,11.3,12,12.3,10.9,12.3z M20,5.1c0-1.9-1.6-3.5-3.5-3.5h-9C5.6,1.6,4,3.1,4,5.1V19
	c0,1.9,1.6,3.5,3.5,3.5h9c1.9,0,3.5-1.6,3.5-3.5v-4v-2V5.1z M18,22V9.4l2-1.7 M8.9,18h4"/>
</svg>
