<?xml version="1.0" encoding="utf-8"?>
<svg version="1.1" id="Alee_Moqadam" xmlns="http://www.w3.org/2000/svg" viewBox="0 0 24 24">
<path fill="none" stroke="#000000" stroke-linecap="round" stroke-linejoin="round" 
	d="M4.6,3.6
	c0-1.1,0.9-2,2-2h10.9c1.1,0,2,0.9,2,2v4.3c-0.8,0-1.4,0.6-1.4,1.4l0,0c0,0.8,0.6,1.4,1.4,1.4v11.6l-1.2-0.5c-0.8-0.3-1.7-0.3-2.5,0
	l0,0c-0.8,0.3-1.7,0.3-2.5,0l0,0c-0.8-0.3-1.7-0.3-2.5,0l0,0c-0.8,0.3-1.7,0.3-2.5,0l0,0c-0.8-0.3-1.7-0.3-2.5,0l-1.2,0.5V10.8
	c0.8,0,1.4-0.6,1.4-1.4l0,0C6,8.6,5.4,8,4.6,8C4.6,8,4.6,3.6,4.6,3.6z M8.4,9.3H6 M13.2,9.3h-2.4 M18,9.3h-2.4 M15,17.5H9 M8,14h8"
	/>
</svg>
