<?xml version="1.0" encoding="utf-8"?>
<svg version="1.1" id="Alee_Moqadam" xmlns="http://www.w3.org/2000/svg" viewBox="0 0 24 24">
<path fill="none" stroke="#000000" stroke-linecap="round" stroke-linejoin="round" 
	d="M8.9,4.6h6.2
	c4.1,0,7.4,3.3,7.4,7.4l0,0c0,4.1-3.3,7.4-7.4,7.4H8.9c-4.1,0-7.4-3.3-7.4-7.4l0,0C1.5,7.9,4.8,4.6,8.9,4.6z M19,8.6h-1.8
	c-1,0-1.7,0.8-1.7,1.7v5.3 M15.5,12H19 M10.4,12h3.4 M10.4,15.5v-7 M8.3,8.6H6.6c-0.9,0-1.7,0.7-1.7,1.7v3.5c0,0.9,0.7,1.7,1.7,1.7
	h1.7 M13.8,8.6v6.9"/>
</svg>
