<?xml version="1.0" encoding="utf-8"?>
<svg version="1.1" id="Alee_Moqadam" xmlns="http://www.w3.org/2000/svg" viewBox="0 0 24 24">
<path fill="none" stroke="#000000" stroke-linecap="round" stroke-linejoin="round" 
	d="M8.9,4.6h6.2
	c4.1,0,7.4,3.3,7.4,7.4l0,0c0,4.1-3.3,7.4-7.4,7.4H8.9c-4.1,0-7.4-3.3-7.4-7.4l0,0C1.5,7.9,4.8,4.6,8.9,4.6z M17.3,12l0,3.6 M19,8.6
	L17.3,12l-1.8-3.4 M10.4,15.5v-7H12c1,0,1.7,0.8,1.7,1.7l0,0c0,1-0.8,1.8-1.8,1.8h-1.5 M4.9,12v1.8c0,0.9,0.8,1.7,1.7,1.7h0
	c0.9,0,1.7-0.8,1.7-1.7V8.6"/>
</svg>
