<?xml version="1.0" encoding="utf-8"?>
<svg version="1.1" id="Alee_Moqadam" xmlns="http://www.w3.org/2000/svg" viewBox="0 0 24 24">
<path fill="none" stroke="#000000" stroke-linecap="round" stroke-linejoin="round" 
	d="M21.5,20.6h-4.7
	c-0.6,0-1-0.4-1-1V9.7c0-0.5,0.5-1,1-1h4.7c0.6,0,1,0.5,1,1v9.9C22.5,20.2,22,20.6,21.5,20.6z M19.1,19L19.1,19
	c0.2,0,0.4-0.2,0.4-0.4v0c0-0.2-0.2-0.4-0.4-0.4l0,0c-0.2,0-0.4,0.2-0.4,0.4v0C18.7,18.8,18.9,19,19.1,19z M15.8,16.8h-12
	c-1.3,0-2.3-1-2.3-2.2V5.7c0-1.2,1-2.2,2.3-2.2h15.3c1.3,0,2.3,1,2.3,2.2v3 M1.6,13.5h14.2 M17.5,20.6H7.8L8.3,20
	c1.4-1.5,1.3-3.2,1.3-3.2"/>
</svg>
