<?xml version="1.0" encoding="utf-8"?>
<svg version="1.1" id="Alee_Moqadam" xmlns="http://www.w3.org/2000/svg" viewBox="0 0 24 24">
<path fill="none" stroke="#000000" stroke-linecap="round" stroke-linejoin="round" 
	d="M19.7,13 c0-0.3,0.1-0.7,0.1-1s0-0.7-0.1-1l2.2-1.7c0.2-0.2,0.2-0.4,0.1-0.7L19.9,5c-0.1-0.2-0.4-0.3-0.6-0.2l-2.6,1c-0.5-0.4-1.1-0.8-1.8-1
	L14.5,2c0-0.2-0.2-0.4-0.5-0.4H9.9C9.6,1.6,9.4,1.8,9.4,2L9,4.8c-0.6,0.3-1.2,0.6-1.8,1l-2.6-1C4.4,4.7,4.2,4.8,4,5L2,8.6
	C1.8,8.8,1.9,9.1,2.1,9.3L4.3,11c0,0.3-0.1,0.7-0.1,1s0,0.7,0.1,1l-2.2,1.7c-0.2,0.2-0.2,0.4-0.1,0.7L4,19c0.1,0.2,0.4,0.3,0.6,0.2
	l2.6-1c0.5,0.4,1.1,0.8,1.8,1L9.4,22c0,0.2,0.2,0.4,0.5,0.4h4.2c0.3,0,0.5-0.2,0.5-0.4l0.4-2.8c0.6-0.3,1.2-0.6,1.8-1l2.6,1
	c0.2,0.1,0.5,0,0.6-0.2l2.1-3.6c0.1-0.2,0.1-0.5-0.1-0.7L19.7,13z M12,15.6c-2,0-3.6-1.6-3.6-3.6S10,8.4,12,8.4s3.6,1.6,3.6,3.6
	S14,15.6,12,15.6z"/>
</svg>
