<?xml version="1.0" encoding="utf-8"?>
<svg version="1.1" id="Alee_Moqadam" xmlns="http://www.w3.org/2000/svg" viewBox="0 0 24 24">
<path fill="none" stroke="#000000" stroke-linecap="round" stroke-linejoin="round" 
	d="M4.5,4.5h16
	c1.1,0,2,0.9,2,2v10.9c0,1.1-0.9,2-2,2h-1.1 M21,21L3,3 M15.5,19.4h-12c-1.1,0-2-0.9-2-2V6.5 M19,11.1L19,11.1 M17.6,15.4H19
	 M9.2,15.4h1.4 M5,15.4h1.4 M7,11.1L7,11.1c0,0.7-0.5,1.2-1.2,1.2l0,0c-0.7,0-1.2-0.5-1.2-1.2l0,0c0-0.7,0.5-1.2,1.2-1.2l0,0
	C6.5,9.9,7,10.4,7,11.1z"/>
</svg>
