<?xml version="1.0" encoding="utf-8"?>
<svg version="1.1" id="Alee_Moqadam" xmlns="http://www.w3.org/2000/svg" viewBox="0 0 24 24">
<path fill="none" stroke="#000000" stroke-linecap="round" stroke-linejoin="round" 
	d="M8.9,4.5h6.2
	c4.1,0,7.4,3.3,7.4,7.5l0,0c0,4.1-3.3,7.5-7.4,7.5H8.9c-4.1,0-7.4-3.3-7.4-7.5l0,0C1.5,7.9,4.8,4.5,8.9,4.5z M17.3,12l0,3.6 M19,8.6
	L17.3,12l-1.8-3.4 M11.9,12l1.8,3.5 M10.4,12h1.5c1,0,1.8-0.8,1.8-1.8l0,0c0-0.9-0.7-1.7-1.7-1.7h-1.6v7.1 M6.6,15.5v-7 M8.3,8.6
	H4.9"/>
</svg>
