<?xml version="1.0" encoding="utf-8"?>
<!-- Generator: Adobe Illustrator 23.0.1, SVG Export Plug-In . SVG Version: 6.00 Build 0)  -->
<svg version="1.1" id="Layer_1" xmlns="http://www.w3.org/2000/svg" xmlns:xlink="http://www.w3.org/1999/xlink" x="0px" y="0px"
	 viewBox="0 0 24 24" enable-background="new 0 0 24 24" xml:space="preserve">
<path fill-rule="evenodd" clip-rule="evenodd" fill="none" stroke="#000000" stroke-linecap="round" stroke-linejoin="round" stroke-miterlimit="10" d="
	M17.6,22.5h-4c-0.4,0-0.9-0.5-0.9-1v-2.8c0-0.5,0.4-1,0.9-1v-1.2c0-1.1,1-2,2-2c1,0,2,0.9,2,2v1.2c0.4,0,0.9,0.5,0.9,1v2.8
	C18.5,22,18.1,22.5,17.6,22.5z M13.6,17.7h4 M12.3,4h-2 M13.4,22.5H7.1c-0.9,0-1.6-0.7-1.6-1.6V3.1c0-0.9,0.7-1.6,1.6-1.6h8.3
	c0.9,0,1.6,0.7,1.6,1.6v11.7"/>
</svg>
