<?xml version="1.0" encoding="utf-8"?>
<svg version="1.1" id="Alee_Moqadam" xmlns="http://www.w3.org/2000/svg" viewBox="0 0 24 24">
<path fill="none" stroke="#000000" stroke-linecap="round" stroke-linejoin="round" 
	d="M17.3,12l1.7,3.5
	 M15.5,12h1.8c1,0,1.7-0.8,1.7-1.7l0,0c0-1-0.8-1.7-1.7-1.7h-1.8v7.1 M8.9,19.5c-4.1,0-7.4-3.3-7.4-7.5l0,0c0-4.1,3.3-7.5,7.4-7.5
	h6.2c4.1,0,7.4,3.3,7.4,7.5l0,0c0,4.1-3.3,7.5-7.4,7.5H8.9z M13.7,8.5v5.4c0,1-0.8,1.7-1.7,1.7l0,0c-1,0-1.7-0.8-1.7-1.7V8.5
	 M8.4,15.5H6.6c-1,0-1.7-0.8-1.7-1.7v-3.5c0-1,0.8-1.7,1.7-1.7h1.7 M8.4,12H4.9"/>
</svg>
