<?xml version="1.0" encoding="utf-8"?>
<svg version="1.1" id="Alee_Moqadam" xmlns="http://www.w3.org/2000/svg" viewBox="0 0 24 24">
<path fill="none" stroke="#000000" stroke-linecap="round" stroke-linejoin="round" 
	d="M12,14.3v7.1
	 M7.7,17.5h1.5 M16.6,10.1c-0.3,0.3-0.9,0.7-1.5,1c-0.5,0.3-1.1,0.5-1.7,0.5l-0.7,0.1 M16.6,6.6L16.6,6.6c0.8,0,1.5,0.7,1.5,1.5v0.6
	c0,0.8-0.7,1.5-1.5,1.5l0,0 M16.4,6.4L15.1,6C14,5.6,12.9,5.8,12,6.4l0,0C11.1,7,9.9,7.2,8.9,6.8L7.6,6.4 M15.5,12.5l1.4,0.7
	c1.3,0.7,2.2,1.6,2.2,2.7v5.8H4.9v-5.8c0-1.1,0.9-2,2.2-2.7l1.4-0.6 M12,14.2c-2.4,0-4.4-1.9-4.4-4.4V6.6c0-2.4,1.9-4.4,4.4-4.4
	c2.4,0,4.4,1.9,4.4,4.4v3.2C16.4,12.2,14.4,14.2,12,14.2z"/>
</svg>
