<?xml version="1.0" encoding="utf-8"?>
<svg version="1.1" id="Alee_Moqadam" xmlns="http://www.w3.org/2000/svg" viewBox="0 0 24 24">
<path fill="none" stroke="#000000" stroke-linecap="round" stroke-linejoin="round" 
	d="M14.9,11.6c-1.4,0-2.5-1.1-2.5-2.5s1.1-2.5,2.5-2.5s2.5,1.1,2.5,2.5S16.3,11.6,14.9,11.6z M18.5,21h-13C4.2,21,3,19.9,3,18.5V5.4
	C3,4.1,4.2,3,5.5,3h12.9c1.4,0,2.5,1.1,2.5,2.5v13C21,19.9,19.8,21,18.5,21z M20.6,14.7l-3.7-3.6 M15.1,11.6l1.8,9.4 M5.5,21
	l7.8-9.9 M12.4,9.3L3,11.7V5l9.6,3.1 M13.4,7.1L10,3 M14.1,3l0.4,3.6 M16.5,6.9l2.2-3.8 M20.9,5.5l-3.7,2.6 M17.5,9.7l3.4,0.6"/>
</svg>
