<?xml version="1.0" encoding="utf-8"?>
<svg version="1.1" id="Alee_Moqadam" xmlns="http://www.w3.org/2000/svg" viewBox="0 0 24 24">
<path fill="none" stroke="#000000" stroke-linecap="round" stroke-linejoin="round" 
	d="M17.8,7.5
	c0,0,0.3,1.6-0.8,2.2c0,0.1,0,0.2,0,0.3c0,3.1-2.3,6.7-6.7,6.7c-1.3,0-2.5-0.4-3.6-1c0.2,0,0.4,0,0.6,0c1.1,0,2.1-0.4,2.9-1
	c-2.4-1-3.3-4.2-2.7-6.8c1.1,1.4,2.9,2.3,4.8,2.4c0-0.2-0.1-0.4-0.1-0.6c0-1.3,1-2.3,2.3-2.3c0.7,0,1.3,0.3,1.7,0.8
	C16.9,8,17.3,7.8,17.8,7.5 M19,21H5c-1.1,0-2-0.9-2-2V5c0-1.1,0.9-2,2-2h14c1.1,0,2,0.9,2,2v14C21,20.1,20.1,21,19,21z"/>
</svg>
