<?xml version="1.0" encoding="utf-8"?>
<svg version="1.1" id="Alee_Moqadam" xmlns="http://www.w3.org/2000/svg" viewBox="0 0 24 24">
<path fill="none" stroke="#000000" stroke-linecap="round" stroke-linejoin="round" 
	d="M8.4,16.6v4.5
	c0,0.7,0.6,1.3,1.4,1.3c0.8,0,1.4-0.6,1.4-1.3v-4.5 M17.5,16.6V7.7h-11v8.9 M6.5,16.6h10.9 M12.9,16.6v4.5c0,0.7,0.6,1.3,1.4,1.3
	c0.8,0,1.4-0.6,1.4-1.3v-4.5 M6.1,7.3c-0.8,0-1.4,0.6-1.4,1.3v5.5c0,0.7,0.6,1.3,1.4,1.3 M17.9,15.5c0.8,0,1.4-0.6,1.4-1.3V8.7
	c0-0.7-0.6-1.3-1.4-1.3 M7.6,1.6l1.2,1.2c-1.3,1-2.2,2.5-2.2,4.3v0.6 M8.8,2.8c0.3-0.2,0.8-0.5,0.8-0.5c0.7-0.4,1.5-0.6,2.4-0.6
	s1.7,0.2,2.4,0.6c0,0,0.5,0.2,0.8,0.5 M17.5,7.7V7.1c0-1.8-0.9-3.3-2.3-4.3l1.2-1.2 M10.3,5.9V5.7 M13.7,5.7v0.2"/>
</svg>
