<?xml version="1.0" encoding="utf-8"?>
<svg version="1.1" id="Alee_Moqadam" xmlns="http://www.w3.org/2000/svg" viewBox="0 0 24 24">
<path fill="none" stroke="#000000" stroke-linecap="round" stroke-linejoin="round" 
	d="M3.9,4.7
	c-1.3,0-2.3,1-2.3,2.3v9c0,1.2,1,2.3,2.3,2.3h16.3c1.3,0,2.3-1,2.3-2.3V7c0-1.2-1-2.3-2.3-2.3H3.9z M14.2,8.3c0.5,0,0.8,0.4,0.8,0.8
	v1.6l1,1l-1,1v1.6c0,0.5-0.4,0.8-0.8,0.8 M9.7,15.3c-0.5,0-0.8-0.4-0.8-0.8v-1.6l-1-1l1-1V9.1c0-0.5,0.4-0.8,0.8-0.8 M14.4,18.3
	c0,1.3,0.5,2.3,1.3,3.2l0.5,0.5H7.8l0,0l0.5-0.5c0.8-0.9,1.3-2,1.3-3.2"/>
</svg>
