<?xml version="1.0" encoding="utf-8"?>
<svg version="1.1" id="Alee_Moqadam" xmlns="http://www.w3.org/2000/svg" viewBox="0 0 24 24">
<path fill="none" stroke="#000000" stroke-linecap="round" stroke-linejoin="round" 
	d="M16.6,6.6H7.4
	 M8.6,3.6h-1c-1.1,0-2,0.9-2,2v14.8c0,1.1,0.9,2,2,2h8.9c1.1,0,2-0.9,2-2V5.6c0-1.1-0.9-2-2-2h-1 M13.1,6.6v-5 M15.4,6.6v-4
	c0-0.6-0.4-1-1-1H9.6c-0.6,0-1,0.4-1,1v3.9 M15.6,13.4v-0.1 M12,13.4v-0.1 M8.4,19.6v-3.3 M8.4,13.4v-0.2 M16,9.5v1.1H8V9.5
	c0-0.6,0.5-1,1.1-1h5.8C15.5,8.5,16,8.9,16,9.5z M12,16.5v-0.2 M15.6,16.5v-0.2 M12,19.6v-0.1 M15.6,19.6v-0.1"/>
</svg>
