<?xml version="1.0" encoding="utf-8"?>
<svg version="1.1" id="Alee_Moqadam" xmlns="http://www.w3.org/2000/svg" viewBox="0 0 24 24">
<path fill="none" stroke="#000000" stroke-linecap="round" stroke-linejoin="round" 
	d="M20.9,9h-6.1v2.8
	c0,0.6,0.3,1.2,0.8,1.6l4.5,3.4c0.5,0.4,0.8,1,0.8,1.6V21h-6.1v-2.6c0-0.6,0.3-1.2,0.8-1.6l4.5-3.4c0.5-0.4,0.8-1,0.8-1.6
	C20.9,11.8,20.9,9,20.9,9z M14.9,21H5c-1.1,0-2-0.9-2-2V5.1c0-1.1,0.9-2,2-2h12.3c1.1,0,2,0.9,2,2V9 M16,6.3H6.2 M8.6,12.5v-1
	 M7.2,18v-0.9 M9.7,12.5H6.2v2.3h3.5v2.3H6.2 M6.2,9h5.7"/>
</svg>
