<?xml version="1.0" encoding="utf-8"?>
<svg version="1.1" id="Alee_Moqadam" xmlns="http://www.w3.org/2000/svg" viewBox="0 0 24 24">
<path fill="none" stroke="#000000" stroke-linecap="round" stroke-linejoin="round" 
	d="M17.8,6.8
	c-0.4,0-0.7-0.3-0.7-0.7c0-0.4,0.3-0.7,0.7-0.7c0.4,0,0.7,0.3,0.7,0.7S18.2,6.8,17.8,6.8z M12,16.3c-2.4,0-4.3-2-4.3-4.3
	s2-4.3,4.3-4.3s4.3,2,4.3,4.2C16.3,14.4,14.4,16.2,12,16.3z M19,21H5c-1.1,0-2-0.9-2-2V5c0-1.1,0.9-2,2-2h14c1.1,0,2,0.9,2,2v14
	C21,20.1,20.1,21,19,21z"/>
</svg>
