<?xml version="1.0" encoding="utf-8"?>
<svg version="1.1" id="Alee_Moqadam" xmlns="http://www.w3.org/2000/svg" viewBox="0 0 24 24">
<path fill="none" stroke="#000000" stroke-linecap="round" stroke-linejoin="round" 
	d="M11.6,16.4v-0.8 M9.7,15.2H13c0.8,0,1.4-0.6,1.4-1.4s-0.6-1.4-1.4-1.4h-2c-0.8,0-1.4-0.6-1.4-1.4s0.6-1.4,1.4-1.4h3.4 M12.5,9.2V8.4
	 M18.9,20.4c-1.1,0-2-0.9-2-2s0.9-2,2-2s2,0.9,2,2S19.9,20.4,18.9,20.4z M13.7,2.9c4.4,0.8,7.8,4.8,7.8,9.5c0,1.7-0.4,3.3-1.2,4.7
	 M12,6c-1.1,0-2-0.9-2-2s0.9-2,2-2s2,0.9,2,2S13.1,6,12,6z M3.7,17.1c-0.8-1.4-1.2-3-1.2-4.7c0-4.8,3.4-8.7,7.8-9.5 M5.2,20.4
	c-1.1,0-2-0.9-2-2s0.9-2,2-2s2,0.9,2,2S6.3,20.4,5.2,20.4z M17.8,20.1C16.2,21.3,14.2,22,12,22c-2.2,0-4.1-0.7-5.7-1.9"/>
</svg>
