<?xml version="1.0" encoding="utf-8"?>
<svg version="1.1" id="Alee_Moqadam" xmlns="http://www.w3.org/2000/svg" viewBox="0 0 24 24">
<path fill="none" stroke="#000000" stroke-linecap="round" stroke-linejoin="round" 
	d="M8.9,4.6h6.2
	c4.1,0,7.4,3.3,7.4,7.4l0,0c0,4.1-3.3,7.4-7.4,7.4H8.9c-4.1,0-7.4-3.3-7.4-7.4l0,0C1.5,7.9,4.8,4.6,8.9,4.6z M8.3,8.6H6.6
	c-0.9,0-1.7,0.7-1.7,1.7v3.5c0,0.9,0.7,1.7,1.7,1.7h1.7V12H7 M15.5,12h1.8c1,0,1.7-0.8,1.7-1.7l0,0c0-1-0.8-1.7-1.7-1.7h-1.8v7
	 M13.7,10.2L13.7,10.2c0,1-0.8,1.8-1.8,1.8h-1.5H12c1,0,1.8,0.8,1.8,1.8l0,0c0,1-0.8,1.7-1.7,1.7h-1.7v-7H12
	C13,8.5,13.7,9.3,13.7,10.2z"/>
</svg>
