<?xml version="1.0" encoding="utf-8"?>
<svg version="1.1" id="Alee_Moqadam" xmlns="http://www.w3.org/2000/svg" viewBox="0 0 24 24">
<path fill="none" stroke="#000000" stroke-linecap="round" stroke-linejoin="round" 
	d="
	M12.3,3.2c3.3,1.1,5.6,4.6,5.6,8.8c0,4.2-2.4,7.7-5.6,8.8 M12,22.5C6.2,22.5,1.5,17.9,1.5,12C1.5,6.1,6.2,1.5,12,1.5
	c5.8,0,10.5,4.6,10.5,10.5C22.5,17.9,17.8,22.5,12,22.5z M20.9,17.6c-1.4,2.2-3.7,3.6-6.3,3.6c-4.4,0-7.9-4-7.9-9.2
	c0-5.1,3.5-9.2,7.9-9.2c2.8,0,5.1,1.6,6.6,4"/>
</svg>
