<?xml version="1.0" encoding="utf-8"?>
<svg version="1.1" id="Alee_Moqadam" xmlns="http://www.w3.org/2000/svg" viewBox="0 0 24 24">
<path fill="none" stroke="#000000" stroke-linecap="round" stroke-linejoin="round" 
	d="M15.2,4.1
	c0,0-3.1,3.8-7.5,1.8 M16.4,6.6C15.5,7,14,5.4,14,5.4 M15.5,12.5l1.4,0.7c1.3,0.7,2.2,1.6,2.2,2.7v5.8H4.9v-5.8c0-1.1,0.9-2,2.2-2.7
	l1.4-0.6 M14.4,13.4l-4.8,2.7v-2.6l4.8,2.6V13.4z M9.6,13.5c-1.2-0.8-2-2.2-2-3.7V6.6c0-2.4,1.9-4.4,4.4-4.4c2.4,0,4.4,1.9,4.4,4.4
	v3.2c0,1.5-0.8,2.9-2,3.6"/>
</svg>
