<?xml version="1.0" encoding="utf-8"?>
<svg version="1.1" id="Alee_Moqadam" xmlns="http://www.w3.org/2000/svg" viewBox="0 0 24 24">
<path fill="none" stroke="#000000" stroke-linecap="round" stroke-linejoin="round" 
	d="M8.9,4.5h6.2
	c4.1,0,7.4,3.3,7.4,7.5l0,0c0,4.1-3.3,7.5-7.4,7.5H8.9c-4.1,0-7.4-3.3-7.4-7.5l0,0C1.5,7.9,4.8,4.5,8.9,4.5z M19,13.8L19,13.8
	c0-1-0.8-1.8-1.8-1.8h-1.8h1.8c1,0,1.7-0.8,1.7-1.7l0,0c0-1-0.8-1.7-1.7-1.7h-1.8v7h1.8C18.2,15.5,19,14.7,19,13.8z M13.6,8.6v5.4
	c0,0.9-0.7,1.6-1.6,1.6l0,0c-0.9,0-1.6-0.7-1.6-1.6V8.6 M8.3,15.5L6.6,12 M4.9,15.5v-7h1.7c0.9,0,1.7,0.8,1.7,1.7l0,0
	c0,1-0.8,1.7-1.7,1.7H4.9"/>
</svg>
