<?xml version="1.0" encoding="utf-8"?>
<svg version="1.1" id="Alee_Moqadam" xmlns="http://www.w3.org/2000/svg" viewBox="0 0 24 24">
<path fill="none" stroke="#000000" stroke-linecap="round" stroke-linejoin="round" 
	d="M4.8,4.4
	C6.7,2.7,9.2,1.6,12,1.6c5.8,0,10.4,4.6,10.4,10.4S17.8,22.4,12,22.4S1.6,17.8,1.6,12c0-1.9,0.5-3.7,1.4-5.2l0,0
	c-0.2-3,1.3-3.9,1.3-3.9C4.2,4.2,5.3,5,5.3,5c1.2-0.6,2.2,0,2.2,0c1.4-2.1,3-1.5,3-1.5c-2.5,2.8,1,3.3,1,3.3C10,10.4,7.3,9,8.2,10.9
	s3.5,0.7,4.6,0.8s1.2,1,1.2,1c-0.9-0.2-1.4,0.8-2.3,1.4s-2.5,0-2.5,0s2.8,1.4,5,1.4s4.8-2,4.8-5.8s-2.4-7-2.4-7"/>
</svg>
