<?xml version="1.0" encoding="utf-8"?>
<svg version="1.1" id="Alee_Moqadam" xmlns="http://www.w3.org/2000/svg" viewBox="0 0 24 24">
<path fill="none" stroke="#000000" stroke-linecap="round" stroke-linejoin="round" 
	d="M1.5,17.4V6.5
	c0-1.1,0.9-2,2-2h17c1.1,0,2,0.9,2,2v10.9c0,1.1-0.9,2-2,2h-17C2.4,19.4,1.5,18.5,1.5,17.4z M18.9,11.1L18.9,11.1 M17.6,15.4H19
	 M13.4,15.4h1.4 M9.2,15.4h1.4 M5,15.4h1.4 M7,11.1L7,11.1c0,0.7-0.5,1.2-1.2,1.2l0,0c-0.7,0-1.2-0.5-1.2-1.2l0,0
	c0-0.7,0.5-1.2,1.2-1.2l0,0C6.5,9.9,7,10.4,7,11.1z M9.4,11.1L9.4,11.1c0,0.7-0.5,1.2-1.2,1.2l0,0c-0.7,0-1.2-0.5-1.2-1.2l0,0
	c0-0.7,0.5-1.2,1.2-1.2l0,0C8.9,9.9,9.4,10.4,9.4,11.1z"/>
</svg>
