<svg xmlns="http://www.w3.org/2000/svg" xmlns:xlink="http://www.w3.org/1999/xlink" width="32" height="32" viewBox="0 0 32 32"><defs><style>.a{fill:#e1e5e6;}.b{clip-path:url(#a);}.c{fill:#2a4d96;}.d{fill:#fff;fill-rule:evenodd;}</style><clipPath id="a"><circle class="a" cx="16" cy="16" r="16" transform="translate(1012 974)"/></clipPath></defs><g class="b" transform="translate(-1012 -974)"><g transform="translate(1012 972)"><rect class="c" width="32" height="32" transform="translate(0 2)"/><path class="d" d="M22.1,23.6c-3.1.1-2.667.767-2.9,1.267-1.2-.8-.2-1.633,0-1.633-1.133-2.267,1-2.433,1.033-2.167.967,4.1,4.567-2.767,0-3.033-1.967-.1-2.333,1.8-2.433,2.733a.7.7,0,0,1-.433.567,2.211,2.211,0,0,1,.733,1.633,2.167,2.167,0,0,1-4.333.067,2.2,2.2,0,0,1,.767-1.667.612.612,0,0,1-.433-.533c-.067-.967-.433-2.867-2.4-2.733-4.567.267-.967,7.133,0,3.033.033-.233,2.133-.1,1.033,2.167.2.033,1.2.833,0,1.633-.233-.567.2-1.167-2.9-1.267-1.8,3.367-6.433.633-4.033-2.2a1.846,1.846,0,0,1,1-.667c2.167-.567,2.833,3.367-.067,2.133C6.4,25.433,11.367,23.067,8,20.4c-.233-.1-.1-3.567,3.7-3.567a3.626,3.626,0,0,1,3.767,3.333v.067a.486.486,0,0,0,.933,0v-.067a3.61,3.61,0,0,1,3.767-3.333c3.767-.033,3.933,3.467,3.7,3.567-3.367,2.7,1.6,5.033,1.267,2.533-2.867,1.233-2.233-2.667-.067-2.133a2.351,2.351,0,0,1,1.033.633C28.567,24.233,23.9,26.967,22.1,23.6Zm-4.333-7.667a.334.334,0,0,1,.333.333.3.3,0,0,1-.267.333c-1.367.267-1.867,2.5-1.867,2.5s-.567-2.233-1.833-2.5a.329.329,0,0,1-.267-.333.315.315,0,0,1,.333-.333ZM12.833,14.8a.441.441,0,0,1,.433-.433h5.367a.433.433,0,0,1,0,.867H13.267A.441.441,0,0,1,12.833,14.8Zm5.7-1.1H13.4a2.62,2.62,0,0,1,0-3.767,1.748,1.748,0,0,0,.633,1.733S13.6,9.033,15,8.033c.1,2.5,1.167,3.167,1.167,3.167s-1.133-3.033.2-4.4a31.1,31.1,0,0,0,2.267,3.233,3.041,3.041,0,0,1,.633,2.367A1.566,1.566,0,0,1,18.533,13.7Z"/></g></g></svg>