<svg xmlns="http://www.w3.org/2000/svg" width="1000
" height="1000" viewBox="0 0 20.99 20.991">
  <g id="Social05.Hover-01" transform="translate(-0.39 -0.39)">
    <path id="Path_5149" data-name="Path 5149" d="M4.05.39H17.74A3.6,3.6,0,0,1,21.38,4V17.76a3.6,3.6,0,0,1-3.6,3.62H4.05A3.6,3.6,0,0,1,.39,17.82s0,0,0-.06V4A3.6,3.6,0,0,1,4,.39Z" fill="#fff"/>
    <path id="Path_5150" data-name="Path 5150" d="M10.89,3.69a7.2,7.2,0,1,0,7.19,7.2h0a7.19,7.19,0,0,0-7.19-7.2Zm-4,3.54a2.06,2.06,0,1,1,4,.78A2.07,2.07,0,0,1,8.48,9.64h0A2.06,2.06,0,0,1,6.85,7.23Zm3,6.22A2.06,2.06,0,1,1,8.21,11h0a2.06,2.06,0,0,1,1.63,2.4h0Zm.87-1.67a.91.91,0,1,1,.685-.138.91.91,0,0,1-.685.138ZM15,14.44A2.06,2.06,0,1,1,13.37,12h0A2.06,2.06,0,0,1,15,14.44Zm-1.36-3.81A2.06,2.06,0,1,1,16.05,9h0a2.07,2.07,0,0,1-2.41,1.63Z" fill="#ed145b"/>
    <path id="Path_5151" data-name="Path 5151" d="M18.83,7.14,18.6,8.46A6,6,0,0,0,16,4.64l1.28.22A2,2,0,0,1,18.83,7.14Zm-1.55,9-.34,1.28a2,2,0,0,1-2.41,1.39l-1.2-.32a6,6,0,0,0,3.95-2.36ZM4.67,5.7l.18-1.14A2,2,0,0,1,7.1,2.93l1.2.18A6.07,6.07,0,0,0,4.67,5.7Zm.82,11.56L4.37,17A2,2,0,0,1,3,14.55l.28-1.08A6.05,6.05,0,0,0,5.49,17.26Z" fill="#27323c" fill-rule="evenodd"/>
  </g>
</svg>
