<svg xmlns="http://www.w3.org/2000/svg" width="1000" height="1000" viewBox="0 0 20.99 20.991">
  <g id="Social05-01-01" transform="translate(-0.39 -0.39)">
    <path id="Path_5147" data-name="Path 5147" d="M4.05.39H17.74A3.6,3.6,0,0,1,21.38,4V17.76a3.6,3.6,0,0,1-3.58,3.62H4.05A3.6,3.6,0,0,1,.39,17.84V4A3.6,3.6,0,0,1,4,.39h.07Z" fill="#36f"/>
    <path id="Path_5148" data-name="Path 5148" d="M18.83,7.14,18.6,8.46A6,6,0,0,0,16,4.64l1.28.22A2,2,0,0,1,18.83,7.14Zm-.55,3.69A7.18,7.18,0,1,1,11.1,3.65h0a7.17,7.17,0,0,1,7.18,7.16ZM12.81,16a2.05,2.05,0,0,0,.77-4h0a2.049,2.049,0,0,0-1.23,3.91,1.79,1.79,0,0,0,.46.09ZM6,12.61a2.05,2.05,0,0,0,4,.78h0a2.049,2.049,0,1,0-3.91-1.23,1.79,1.79,0,0,0-.09.46Zm3.45-7A2.05,2.05,0,0,0,7.07,7.18h0A2.07,2.07,0,0,0,8.7,9.59h0a2.05,2.05,0,0,0,.78-4ZM11.24,10a.89.89,0,0,0-1.05.69h0a.92.92,0,0,0,.72,1.07h0A.93.93,0,0,0,12,11.07S12,11,12,11a.92.92,0,0,0-.73-1.06h0ZM14.6,6.6A2,2,0,1,0,16.25,9h0a2,2,0,0,0-1.47-2.42h-.15Zm-10-.85.18-1.14A2,2,0,0,1,7.05,2.92h0l1.2.18A6.1,6.1,0,0,0,4.67,5.7Zm.82,11.56-1-.31A2,2,0,0,1,3,14.55l.28-1.08a6.07,6.07,0,0,0,2.21,3.79Zm11.79-1.13-.34,1.28a2,2,0,0,1-2.41,1.39l-1.2-.32a6,6,0,0,0,4-2.4Z" fill="#fff" fill-rule="evenodd"/>
  </g>
</svg>
