<svg xmlns="http://www.w3.org/2000/svg" xmlns:xlink="http://www.w3.org/1999/xlink" width="1000" height="1000" viewBox="0 0 21 21">
  <defs>
    <radialGradient id="radial-gradient" cx="0.146" cy="0.839" r="1.221" gradientUnits="objectBoundingBox">
      <stop offset="0.03" stop-color="#f5e83d"/>
      <stop offset="0.37" stop-color="#e62d7b"/>
      <stop offset="0.56" stop-color="#cd3087"/>
      <stop offset="0.9" stop-color="#743e8f"/>
    </radialGradient>
  </defs>
  <g id="Social01.Hoversvg" transform="translate(-0.4 -0.39)">
    <path id="Path_5133" data-name="Path 5133" d="M4.06.39h13.7A3.62,3.62,0,0,1,21.4,4V17.76a3.62,3.62,0,0,1-3.6,3.63H4.06A3.62,3.62,0,0,1,.4,17.82V4A3.62,3.62,0,0,1,4,.39Z" fill="#fff"/>
    <path id="Path_5134" data-name="Path 5134" d="M14.69,18.39H7.11A3.7,3.7,0,0,1,3.4,14.7V7.1A3.7,3.7,0,0,1,7.09,3.39h7.6A3.71,3.71,0,0,1,18.4,7.1v7.58a3.71,3.71,0,0,1-3.71,3.71ZM10.9,6.4a4.44,4.44,0,1,0,3.157,1.318A4.44,4.44,0,0,0,10.9,6.4Zm4.26-.61a.79.79,0,1,0,.79.79.79.79,0,0,0-.79-.79Zm-4.26,8a3,3,0,1,1,2.92-3v.08a2.94,2.94,0,0,1-2.92,2.89Z" fill-rule="evenodd" fill="url(#radial-gradient)"/>
  </g>
</svg>
