<svg xmlns="http://www.w3.org/2000/svg" width="1000" height="1000" viewBox="0 0 21.8 21.761">
  <g id="Social01-01" transform="translate(0 0)">
    <path id="Path_5131" data-name="Path 5131" d="M3.8,0H18a3.75,3.75,0,0,1,3.8,3.72V18a3.75,3.75,0,0,1-3.74,3.76H3.8A3.75,3.75,0,0,1,0,18.08V3.76A3.75,3.75,0,0,1,3.74,0Z" fill="#36f"/>
    <path id="Path_5132" data-name="Path 5132" d="M14.72,18.48H7.05A3.73,3.73,0,0,1,3.3,14.75V7.05A3.73,3.73,0,0,1,7,3.3h7.69a3.75,3.75,0,0,1,3.75,3.75v7.68a3.75,3.75,0,0,1-3.75,3.75ZM10.88,6.4a4.44,4.44,0,1,0,3.157,1.318A4.44,4.44,0,0,0,10.88,6.4Zm4.26-.61a.79.79,0,1,0,.79.79.79.79,0,0,0-.79-.79Zm-4.26,8a3,3,0,1,1,2.92-3v.08a2.94,2.94,0,0,1-2.92,2.89Z" fill="#fff" fill-rule="evenodd"/>
  </g>
</svg>
