<svg xmlns="http://www.w3.org/2000/svg" width="1000" height="1000" viewBox="0 0 20.99 20.991">
  <g id="Social04-01-01" transform="translate(-0.39 -0.39)">
    <path id="Path_5143" data-name="Path 5143" d="M4.05.39H17.74A3.6,3.6,0,0,1,21.38,4V17.76a3.6,3.6,0,0,1-3.58,3.62H4.05A3.6,3.6,0,0,1,.39,17.84V4A3.6,3.6,0,0,1,4,.39h.07Z" fill="#36f"/>
    <path id="Path_5144" data-name="Path 5144" d="M14.85,17.33V12.68c0-1.17-.43-2-1.51-2a1.65,1.65,0,0,0-1.52,1.06,1.91,1.91,0,0,0-.1.71V17.3h-3V8.61h3V9.87a3,3,0,0,1,2.67-1.44c2,0,3.42,1.24,3.42,3.92v5ZM5.62,7.45H5.36A1.5,1.5,0,0,1,4,5.81,1.54,1.54,0,0,1,5.64,4.44H5.9A1.52,1.52,0,0,1,7.3,6.07h0A1.54,1.54,0,0,1,5.62,7.45Zm1.49,9.88h-3V8.64h3Z" fill="#fff" fill-rule="evenodd"/>
  </g>
</svg>
