<svg xmlns="http://www.w3.org/2000/svg" width="1000" height="1000" viewBox="0 0 20.99 20.991">
  <g id="Social03-01-01" transform="translate(-0.39 -0.39)">
    <path id="Path_5139" data-name="Path 5139" d="M4.05.39H17.74A3.6,3.6,0,0,1,21.38,4V17.76a3.6,3.6,0,0,1-3.58,3.62H4.05A3.6,3.6,0,0,1,.39,17.84V4A3.6,3.6,0,0,1,4,.39h.07Z" fill="#36f"/>
    <path id="Path_5140" data-name="Path 5140" d="M13.65,16.88a.59.59,0,0,0,.62-.54l2-10.94a.46.46,0,0,0-.11-.4.43.43,0,0,0-.3-.13l-12.09,5a.47.47,0,0,0-.29.48.44.44,0,0,0,.31.43l2.93,1,1.17,4a.47.47,0,0,0,.46.36.39.39,0,0,0,.3-.14l1.66-1.79,3,2.48a.58.58,0,0,0,.34.19Zm-5.35-2-.88-3.3Q13.8,7,13.84,7C14,7,14,7,14,7.12h0S12.16,9,8.5,12.73Z" fill="#fff"/>
  </g>
</svg>
