<svg xmlns="http://www.w3.org/2000/svg" width="1000" height="1000" viewBox="0 0 20.99 20.991">
  <g id="Social03.Hover-01" transform="translate(-0.39 -0.39)">
    <path id="Path_5141" data-name="Path 5141" d="M4.05.39H17.74A3.6,3.6,0,0,1,21.38,4V17.76a3.6,3.6,0,0,1-3.6,3.62H4.05A3.6,3.6,0,0,1,.39,17.82s0,0,0-.06V4A3.6,3.6,0,0,1,4,.39Z" fill="#fff"/>
    <path id="Path_5142" data-name="Path 5142" d="M13.65,16.88a.59.59,0,0,0,.62-.54l2-10.94a.45.45,0,0,0-.11-.4.43.43,0,0,0-.3-.13s-4.07,1.68-12.09,5a.47.47,0,0,0-.29.48.45.45,0,0,0,.31.43l2.93,1,1.17,4a.48.48,0,0,0,.46.36.41.41,0,0,0,.3-.14l1.66-1.79,3,2.48a.6.6,0,0,0,.34.19Zm-5.35-2-.88-3.3Q13.8,7,13.84,7C14,7,14,7,14,7.12h0s-1.84,1.9-5.5,5.61Z" fill="#1b88cc"/>
  </g>
</svg>
