<svg xmlns="http://www.w3.org/2000/svg" width="1000" height="1000" viewBox="0 0 20.99 20.991">
  <g id="Social02-01-01" transform="translate(-0.39 -0.39)">
    <path id="Path_5135" data-name="Path 5135" d="M4.05.39H17.74A3.6,3.6,0,0,1,21.38,4V17.76a3.6,3.6,0,0,1-3.58,3.62H4.05A3.6,3.6,0,0,1,.39,17.84V4A3.6,3.6,0,0,1,4,.39h.07Z" fill="#36f"/>
    <path id="Path_5136" data-name="Path 5136" d="M19,6.76a2.15,2.15,0,0,0-1.5-1.52,50.759,50.759,0,0,0-6.64-.35,51,51,0,0,0-6.65.35,2.15,2.15,0,0,0-1.5,1.52,24.31,24.31,0,0,0,0,8.25,2.15,2.15,0,0,0,1.5,1.52,49.32,49.32,0,0,0,6.65.36,49.079,49.079,0,0,0,6.64-.36A2.15,2.15,0,0,0,19,15a24.25,24.25,0,0,0,0-8.24ZM9.19,13.45V8.32l4.41,2.56Z" fill="#fff"/>
  </g>
</svg>
