<svg xmlns="http://www.w3.org/2000/svg" width="1000" height="1000" viewBox="0 0 20.99 20.991">
  <g id="Social02.Hover-01" transform="translate(-0.39 -0.39)">
    <path id="Path_5137" data-name="Path 5137" d="M4.05.39H17.74A3.6,3.6,0,0,1,21.38,4V17.76a3.6,3.6,0,0,1-3.6,3.62H4.05A3.6,3.6,0,0,1,.39,17.82s0,0,0-.06V4A3.6,3.6,0,0,1,4,.39Z" fill="#fff"/>
    <path id="Path_5138" data-name="Path 5138" d="M19,6.76a2.15,2.15,0,0,0-1.5-1.52,51.56,51.56,0,0,0-6.64-.35,51.7,51.7,0,0,0-6.65.35,2.15,2.15,0,0,0-1.5,1.52,24.31,24.31,0,0,0,0,8.25,2.15,2.15,0,0,0,1.5,1.52,50.281,50.281,0,0,0,6.65.36,50.149,50.149,0,0,0,6.64-.36A2.15,2.15,0,0,0,19,15,24.31,24.31,0,0,0,19,6.76ZM9.19,13.45V8.32l4.41,2.56Z" fill="#ed1f24"/>
  </g>
</svg>
